<?xml version="1.0" standalone="no"?>
<!DOCTYPE svg PUBLIC "-//W3C//DTD SVG 20010904//EN"
 "http://www.w3.org/TR/2001/REC-SVG-20010904/DTD/svg10.dtd">
<svg version="1.0" xmlns="http://www.w3.org/2000/svg"
 width="300.000000pt" height="300.000000pt" viewBox="0 0 300.000000 300.000000"
 preserveAspectRatio="xMidYMid meet">
<metadata>
Created by potrace 1.10, written by Peter Selinger 2001-2011
</metadata>
<g transform="translate(0.000000,300.000000) scale(0.100000,-0.100000)"
fill="#ab894f" stroke="none">
<path d="M1624 2825 c-5 -18 -1 -31 13 -43 11 -9 23 -26 27 -37 6 -16 5 -18
-5 -7 -23 22 -33 13 -12 -10 26 -29 37 -64 23 -73 -12 -8 -50 22 -50 38 0 6
12 0 28 -14 22 -19 21 -17 -5 11 -22 24 -33 48 -36 75 l-4 40 -1 -41 -2 -42
-37 14 c-98 35 -158 2 -241 -133 -6 -9 -25 -10 -77 -2 -180 26 -216 28 -267
19 -66 -13 -88 -33 -88 -80 0 -94 139 -272 262 -335 68 -35 76 -61 29 -94 -34
-24 -64 -82 -59 -115 1 -13 -5 -33 -15 -44 -29 -32 -14 -58 36 -66 52 -9 77
-31 77 -68 0 -21 -7 -32 -26 -40 -32 -15 -59 0 -59 33 0 28 32 39 41 14 9 -22
-3 -32 -19 -15 -9 10 -9 11 1 6 6 -4 12 -2 12 4 0 7 -6 10 -12 8 -7 -3 -13
-11 -13 -19 0 -19 57 -19 62 1 4 13 3 13 -5 1 -8 -11 -11 -9 -14 10 -4 31 -46
39 -65 13 -12 -17 -13 -16 -13 4 0 11 8 26 18 31 15 9 15 10 1 11 -31 0 -42
-26 -24 -60 9 -17 13 -35 10 -41 -4 -5 -3 -8 2 -7 4 2 9 -2 11 -7 1 -6 -4 -10
-10 -10 -8 0 -15 -18 -19 -42 -6 -45 0 -53 21 -28 9 10 9 15 1 15 -21 0 -11
35 13 46 22 10 25 9 30 -17 8 -39 -3 -90 -24 -114 -30 -35 -31 -44 -9 -55 13
-7 19 -8 15 -2 -14 24 13 19 44 -7 23 -19 30 -30 22 -35 -8 -4 -21 2 -33 16
-20 23 -20 23 -9 1 8 -18 6 -32 -15 -73 -14 -27 -30 -50 -35 -50 -17 0 -11 15
20 59 17 23 28 47 24 52 -4 6 -14 -1 -25 -18 l-19 -28 -1 35 c-1 19 -1 38 -1
42 1 3 -5 12 -13 18 -16 14 -21 45 -5 35 8 -5 60 89 60 109 0 11 -25 1 -26
-10 0 -5 -7 -29 -14 -53 -13 -41 -15 -43 -21 -20 -7 23 -7 23 -8 2 -1 -13 -6
-23 -12 -23 -8 0 -9 12 -5 38 14 78 19 197 7 187 -6 -6 -13 -50 -16 -98 -4
-68 -10 -93 -24 -108 l-19 -21 -7 21 c-3 12 -3 31 1 43 l6 21 12 -22 c10 -19
12 -13 8 40 -4 49 -2 60 8 54 10 -6 12 -4 7 7 -6 18 12 89 25 99 5 3 5 16 0
28 -6 18 -14 -1 -36 -91 -16 -62 -38 -128 -49 -147 -12 -19 -16 -32 -10 -28 5
3 15 -5 21 -18 7 -15 8 -25 2 -25 -6 0 -10 -11 -10 -23 0 -36 -10 -39 -32 -11
-20 25 -20 25 -38 5 -9 -12 -20 -17 -24 -14 -4 4 -4 0 0 -10 7 -19 -3 -22 -26
-7 -13 9 -11 13 10 30 14 11 37 23 53 26 15 4 27 11 27 16 0 6 7 5 15 -2 22
-18 18 4 -4 24 -18 16 -18 18 0 54 25 48 25 66 1 51 -12 -7 -18 -23 -18 -42 1
-18 -5 -32 -13 -35 -8 -3 -11 0 -7 6 3 6 1 14 -5 18 -7 4 -10 3 -7 -2 4 -5 -5
-10 -18 -10 -13 -1 -24 2 -24 8 0 5 5 6 12 2 7 -4 8 -3 4 4 -4 8 -2 10 7 6 8
-3 18 0 22 6 4 7 1 10 -10 8 -11 -2 -19 4 -21 16 -2 14 0 16 9 7 13 -13 31
-15 22 -2 -3 5 -1 12 5 16 6 4 8 10 5 15 -3 5 -1 11 4 14 5 4 13 1 17 -5 4 -7
3 -9 -3 -6 -5 3 -10 0 -10 -8 0 -20 24 0 43 36 21 42 18 43 -28 11 -45 -31
-87 -72 -73 -72 4 0 3 -6 -2 -12 -6 -7 -9 -23 -8 -36 2 -27 -8 -35 -34 -27
-12 3 -18 13 -16 23 8 42 9 78 2 88 -3 6 2 19 13 29 11 10 20 28 20 39 0 31
-18 89 -34 111 -13 18 -14 15 -9 -30 4 -48 4 -49 -11 -25 -21 35 -19 12 3 -29
17 -32 19 -33 29 -15 17 29 14 1 -4 -34 -14 -28 -17 -30 -30 -17 -38 38 -112
25 -139 -24 -14 -25 -14 -24 -7 19 13 80 9 136 -12 159 -11 12 -25 21 -33 21
-24 0 -13 -38 19 -63 l31 -25 -12 -60 c-6 -32 -9 -66 -6 -74 3 -8 7 -35 9 -59
2 -24 6 -57 10 -74 3 -16 3 -24 0 -17 -5 10 -9 10 -21 1 -12 -11 -13 -8 -8 14
6 21 -6 50 -50 134 -32 59 -80 151 -108 203 l-49 95 4 -80 c4 -95 30 -159 65
-161 30 -2 29 2 -7 33 -35 29 -38 39 -11 39 12 0 17 -6 14 -17 -3 -9 1 -20 8
-25 9 -5 11 -2 6 9 -13 36 3 15 23 -27 15 -33 17 -51 11 -68 -6 -13 -10 -17
-10 -8 -1 9 -10 16 -21 17 -19 2 -18 -1 7 -34 26 -34 27 -36 5 -24 -12 7 -20
16 -17 21 3 6 0 7 -8 4 -8 -3 -18 -1 -22 5 -3 6 -2 11 4 11 5 0 8 9 6 20 -3
17 -1 19 16 10 21 -12 24 -4 9 20 -8 12 -10 12 -10 1 0 -10 -6 -9 -27 5 -18
11 -24 12 -17 3 7 -8 11 -25 10 -39 -1 -14 2 -31 7 -37 5 -7 6 -13 2 -13 -5 0
0 -9 10 -20 10 -11 15 -23 12 -26 -3 -4 -2 -15 4 -25 5 -10 14 -40 19 -66 14
-64 14 -64 28 -99 9 -22 10 -37 2 -55 -9 -21 -10 -21 -6 -2 2 12 -2 30 -9 39
-10 15 -12 11 -11 -27 0 -24 -3 -53 -7 -64 -8 -19 -9 -19 -22 5 -8 14 -14 34
-14 45 1 12 5 6 10 -14 6 -18 12 -31 15 -28 8 7 -17 89 -33 108 -7 8 -13 31
-13 50 0 20 -7 44 -15 55 -17 23 -19 11 -4 -31 7 -18 9 -45 5 -61 l-8 -29 -13
25 c-14 27 -10 45 7 34 8 -5 9 -1 5 10 -4 10 -7 23 -8 29 0 7 -5 1 -11 -13 -6
-14 -12 -20 -14 -14 -3 6 2 26 10 44 13 32 12 38 -11 83 -13 27 -26 47 -28 45
-2 -2 2 -26 10 -53 7 -28 14 -41 14 -31 1 11 4 17 7 14 3 -3 1 -21 -4 -39 l-9
-34 -8 37 c-4 21 -11 35 -16 32 -6 -3 -7 6 -3 22 5 19 4 25 -5 20 -8 -5 -8 0
-1 18 10 26 4 56 -12 67 -5 3 -16 24 -24 45 -13 37 -14 34 -11 -76 1 -63 6
-124 11 -134 6 -12 6 -17 0 -13 -6 3 -10 -4 -9 -16 0 -31 35 -73 78 -93 24
-12 34 -22 32 -35 -2 -9 4 -20 12 -23 9 -4 13 -9 10 -12 -6 -7 -103 42 -112
56 -9 15 6 12 24 -4 9 -7 27 -16 41 -20 14 -3 19 -3 12 0 -6 3 -9 11 -6 16 4
6 2 8 -4 4 -5 -3 -24 5 -40 19 -16 14 -32 25 -34 25 -10 0 -1 -39 12 -55 16
-19 83 -55 102 -55 11 0 40 -35 42 -50 1 -6 24 -36 49 -62 9 -10 16 -18 15
-19 -18 -7 -117 -8 -121 -2 -3 5 12 7 33 5 21 -2 40 1 44 6 4 6 -11 10 -40 10
-29 -1 -51 5 -62 15 -9 10 -11 17 -5 17 7 0 15 -4 18 -10 8 -13 75 -13 75 0 0
6 -15 10 -32 10 -18 0 -40 5 -48 10 -11 7 -5 9 20 5 35 -5 35 -5 -5 8 -22 8
-39 18 -38 24 1 6 -9 15 -23 22 l-26 11 22 -30 c12 -16 19 -34 15 -39 -7 -13
53 -81 72 -81 11 0 13 -5 8 -17 -4 -10 -9 -26 -12 -35 -5 -16 -9 -15 -52 6
-25 13 -63 29 -83 35 -20 7 -42 19 -48 27 -32 37 -60 -2 -32 -44 10 -15 25
-44 34 -64 12 -26 33 -46 69 -67 l52 -30 46 23 c45 22 90 25 160 10 24 -5 23
-6 -15 -28 -23 -13 -38 -29 -38 -39 3 -27 -74 -22 -110 7 -24 20 -32 22 -62
13 -19 -6 -34 -13 -34 -16 0 -3 18 -16 40 -29 24 -14 48 -38 61 -63 14 -29 32
-46 60 -58 21 -9 39 -20 39 -24 0 -5 -5 -5 -12 -1 -7 4 -8 3 -4 -5 4 -6 12 -9
17 -6 5 4 12 -8 15 -25 4 -17 18 -40 33 -52 l26 -21 -30 7 c-39 10 -82 51 -90
87 -8 34 -25 40 -105 36 -30 -1 -64 2 -75 8 -17 8 -17 4 6 -25 41 -53 73 -72
131 -78 30 -2 49 -1 45 4 -5 5 -16 9 -25 10 -44 1 -92 18 -112 39 l-21 22 61
7 c33 4 65 4 70 1 13 -8 13 -35 -1 -35 -5 0 -7 4 -4 10 4 6 -2 7 -17 1 -13 -5
-34 -5 -48 0 -23 8 -23 8 -7 -5 10 -8 34 -14 53 -14 23 0 40 -7 49 -18 12 -17
10 -22 -22 -48 -33 -27 -41 -40 -58 -94 -7 -23 -6 -23 22 -9 15 8 40 17 54 20
15 4 41 20 57 36 17 15 46 31 64 35 21 4 28 3 19 -3 -10 -6 -2 -9 25 -8 21 1
45 7 54 14 8 7 19 13 24 12 5 0 12 5 16 11 4 7 13 9 19 6 16 -10 14 -29 -3
-23 -8 3 -17 3 -21 -1 -4 -4 -11 -8 -16 -8 -22 -3 -23 -5 -10 -13 10 -6 25 -4
44 5 16 9 31 13 34 10 3 -2 -15 -14 -39 -27 -70 -35 -140 -90 -134 -105 3 -8
1 -13 -4 -11 -5 1 -16 -7 -24 -18 -11 -14 -15 -16 -16 -6 0 8 25 39 55 68 72
69 60 72 -20 5 -5 -5 -19 -20 -29 -35 -11 -14 -23 -24 -27 -21 -4 2 -5 -5 -2
-15 3 -11 0 -27 -5 -37 -6 -10 -6 -27 -2 -38 5 -12 11 -32 14 -46 3 -14 12
-34 21 -45 9 -11 14 -15 12 -10 -3 6 3 35 13 65 17 51 19 53 25 27 4 -15 5
-39 3 -52 -3 -14 -4 -25 -3 -25 6 0 88 124 100 152 13 31 14 31 15 8 0 -14 3
-35 6 -46 4 -17 0 -23 -20 -28 -33 -8 -34 -32 -2 -43 l24 -8 -21 -45 c-19 -39
-27 -46 -61 -51 -46 -7 -72 -38 -46 -54 17 -11 32 5 19 21 -9 11 -7 14 9 14
27 0 72 20 72 32 0 5 4 7 10 3 10 -6 46 42 37 51 -3 3 -12 -7 -21 -23 -8 -15
-15 -24 -16 -20 0 15 33 72 46 80 12 7 11 14 -3 40 -13 23 -18 56 -18 115 0
68 -2 79 -12 65 -7 -9 -13 -23 -13 -31 0 -8 -5 -32 -12 -54 -11 -38 -12 -38
-23 -17 -12 21 -13 20 -20 -17 -4 -21 -11 -43 -15 -49 -5 -5 -9 -13 -9 -17 -1
-5 -2 -14 -2 -20 -1 -7 -7 10 -14 37 l-12 50 -21 -45 c-12 -25 -22 -51 -22
-59 0 -24 -11 -5 -21 36 -9 40 -3 77 11 68 4 -3 13 2 20 11 10 11 15 12 21 3
4 -7 10 2 15 22 l8 34 7 -35 6 -35 2 31 c1 23 12 41 41 68 22 20 45 36 50 36
6 0 12 0 15 0 3 0 19 7 35 15 29 15 30 15 30 -5 0 -11 4 -20 9 -20 6 0 4 -12
-4 -27 -8 -14 -17 -43 -20 -65 -4 -21 -10 -36 -14 -33 -4 2 -8 -2 -8 -10 0 -8
4 -12 9 -9 4 3 8 -2 8 -10 0 -9 -6 -16 -12 -16 -9 0 -9 -3 1 -9 8 -5 12 -18 9
-28 -3 -11 3 -31 13 -44 20 -26 24 -54 10 -64 -13 -8 -31 27 -31 61 0 18 -3
25 -10 18 -14 -14 7 -82 29 -94 25 -13 45 11 36 42 l-7 23 23 -21 c13 -12 32
-24 42 -27 25 -9 12 -27 -19 -27 -15 0 -24 -6 -24 -15 0 -20 17 -19 37 1 10
10 26 14 42 11 14 -3 33 -1 43 4 10 6 19 5 23 -1 18 -30 85 5 85 44 0 12 5 16
16 12 9 -3 25 -6 36 -6 16 0 18 -3 10 -13 -17 -20 -32 -101 -22 -111 11 -11
15 1 25 58 6 38 20 55 95 116 39 32 70 76 47 67 -23 -9 -29 4 -9 19 16 12 16
13 0 10 -18 -2 -47 -33 -48 -50 0 -5 7 -3 15 4 8 7 15 8 15 3 0 -12 -59 -68
-89 -83 -25 -13 -75 -7 -98 11 -16 14 -18 56 -2 61 7 2 7 12 0 32 -12 29 -6
50 10 41 5 -4 9 -1 9 4 0 6 5 11 10 11 6 0 4 -11 -5 -24 -12 -18 -13 -29 -5
-47 10 -22 10 -22 5 6 l-6 30 21 -25 c21 -26 27 -45 11 -35 -5 3 -12 1 -16 -5
-4 -6 -11 -7 -17 -4 -7 4 -8 2 -4 -4 4 -7 1 -12 -6 -13 -7 0 0 -5 16 -9 24 -8
36 -4 72 21 51 35 61 49 37 50 -10 0 -13 3 -7 5 7 3 10 13 7 24 -4 15 -8 16
-18 7 -7 -7 -11 -15 -8 -19 7 -12 -5 -9 -35 8 -18 11 -22 12 -10 2 10 -8 14
-18 10 -22 -4 -4 -2 -7 3 -6 19 4 55 -12 49 -22 -3 -5 -11 -4 -20 3 -7 6 -20
9 -27 6 -8 -3 -21 7 -31 24 -15 26 -16 30 -1 35 8 4 22 1 30 -6 13 -11 20 -9
40 10 21 20 25 21 26 7 1 -9 3 -21 4 -27 1 -5 3 -14 4 -20 0 -5 6 -10 12 -10
5 0 7 4 4 10 -3 5 -1 10 6 10 7 0 6 8 -5 25 -19 29 -21 46 -3 44 29 -4 58 2
53 10 -3 5 -19 7 -36 5 -22 -3 -30 1 -30 12 0 17 49 17 63 -1 4 -7 10 -7 15 0
4 6 24 11 45 13 37 4 37 3 26 -22 -14 -30 -25 -32 -49 -11 -16 15 -17 14 -17
-11 0 -14 2 -21 6 -16 4 7 12 7 20 2 11 -6 9 -11 -8 -21 -26 -17 -26 -32 -1
-87 19 -43 18 -88 -2 -60 -7 10 -8 9 -4 -4 3 -12 -3 -23 -20 -34 -13 -9 -27
-15 -29 -12 -7 7 6 67 14 66 3 0 13 0 21 1 13 1 13 2 0 11 -13 9 -13 11 0 20
8 5 10 10 4 10 -6 0 -27 -16 -47 -35 -20 -19 -42 -35 -50 -35 -15 0 -27 -29
-27 -66 0 -12 14 -38 30 -59 17 -21 30 -45 30 -53 0 -16 41 36 62 78 7 14 13
27 15 29 1 2 10 -2 19 -10 16 -13 16 -12 5 8 -11 21 -9 23 11 23 13 0 44 11
71 24 29 15 47 20 48 13 4 -56 3 -127 -3 -127 -8 0 -23 22 -23 35 0 6 -6 10
-13 10 -7 0 -22 11 -32 25 -11 14 -20 19 -20 12 0 -7 17 -31 38 -55 22 -23 44
-51 50 -62 11 -20 11 -20 12 1 0 11 16 36 36 55 20 18 44 51 54 72 l17 39 7
-47 c7 -45 8 -46 27 -29 11 10 19 12 19 6 0 -7 -4 -12 -8 -12 -5 0 -14 -11
-20 -24 -9 -19 -8 -32 4 -55 19 -38 42 -51 70 -41 25 10 49 70 41 102 -3 11
-3 17 1 13 4 -4 12 17 18 47 9 45 8 57 -7 78 -9 14 -22 52 -29 85 -7 33 -19
73 -27 88 -13 26 -13 28 4 25 10 -1 25 2 33 7 12 7 13 6 3 -7 -7 -8 -9 -18 -5
-22 4 -4 12 -22 18 -39 l11 -32 17 33 c10 19 20 32 22 29 7 -7 -28 -77 -37
-72 -4 3 -5 -5 -2 -16 6 -20 7 -20 21 7 8 16 21 36 29 46 13 14 12 20 -2 49
l-17 33 -16 -35 c-11 -25 -16 -30 -19 -17 -3 10 5 30 16 44 l20 25 30 -53 c17
-29 40 -76 52 -105 16 -39 25 -50 37 -46 13 3 14 2 4 -4 -7 -5 -15 -26 -19
-46 -7 -49 17 -87 55 -87 36 0 52 17 52 54 l0 29 45 -47 c30 -32 50 -46 61
-42 19 7 9 26 -14 26 -16 0 -72 47 -72 61 0 13 95 -4 117 -21 12 -10 58 -23
102 -30 44 -7 88 -18 98 -26 17 -13 17 -13 1 -14 -10 0 -18 -5 -18 -11 0 -14
32 -8 37 7 6 17 -25 44 -51 44 -16 0 -32 13 -51 40 -20 30 -31 37 -36 28 -13
-20 -11 -5 6 42 15 41 14 48 -10 140 -4 14 8 0 27 -32 18 -31 52 -77 76 -103
l42 -48 -5 49 -6 49 26 -54 c14 -29 25 -61 26 -70 1 -22 27 58 28 87 1 13 -3
20 -9 17 -6 -3 -10 -17 -10 -31 0 -16 -4 -23 -11 -18 -6 3 -9 15 -6 25 3 11 1
17 -3 14 -5 -3 -14 11 -21 30 -17 45 -29 45 -29 0 0 -19 -4 -35 -8 -35 -11 0
-32 22 -32 34 0 5 7 1 16 -10 15 -18 15 -18 4 3 -7 15 -16 20 -28 16 -14 -5
-15 -3 -4 8 6 7 12 20 12 28 0 11 -4 10 -16 -5 -15 -19 -16 -19 -9 1 18 51 17
60 -3 32 l-19 -28 -17 41 c-9 22 -16 50 -16 61 0 11 -4 18 -9 14 -16 -9 -22
12 -7 24 10 9 15 8 20 -4 3 -9 10 -14 15 -10 5 3 12 1 15 -4 4 -5 2 -12 -4
-16 -5 -3 -10 -11 -10 -18 0 -6 6 -2 14 9 21 29 30 10 11 -25 -8 -17 -11 -31
-6 -31 5 0 12 12 15 26 9 34 42 29 38 -6 -2 -19 0 -22 9 -13 10 10 15 9 24 -4
8 -10 14 -12 18 -5 4 5 -16 31 -44 56 -28 25 -48 46 -43 46 4 0 15 -7 24 -15
13 -12 23 -13 44 -6 33 13 34 23 2 15 -14 -3 -37 1 -56 11 -18 9 -29 12 -26 6
11 -17 -3 -13 -41 10 -19 12 -37 18 -41 14 -4 -4 -2 -10 5 -12 16 -6 5 -33
-14 -33 -13 0 -13 2 -2 18 13 15 12 16 -3 4 -9 -8 -25 -12 -35 -9 -15 3 -14 6
7 15 35 16 60 37 60 51 0 6 18 0 41 -15 37 -23 48 -25 100 -19 57 7 60 6 84
-23 14 -17 47 -38 73 -48 26 -10 53 -22 60 -27 23 -18 21 -2 -6 48 -15 27 -41
59 -59 70 -36 22 -45 42 -12 24 49 -26 134 8 180 73 22 30 22 30 1 19 -14 -7
-46 -9 -90 -5 -67 6 -70 6 -88 -21 -43 -61 -77 -95 -96 -95 -17 0 -17 2 6 23
14 13 23 27 19 30 -3 4 0 7 7 7 7 0 10 3 7 7 -4 3 -1 13 6 21 10 13 9 14 -2 7
-9 -5 -12 -4 -7 3 3 6 20 13 36 17 18 4 41 21 57 41 14 19 40 41 57 49 45 20
72 44 60 53 -5 5 -34 23 -65 40 -39 21 -56 26 -56 17 0 -8 4 -12 9 -9 4 3 13
2 19 -1 19 -12 -31 -55 -64 -55 -24 0 -28 3 -24 20 3 11 1 18 -4 14 -5 -3 -9
0 -9 6 0 6 -12 15 -27 21 -33 11 -43 12 -42 2 1 -5 4 -7 9 -6 4 1 18 -9 31
-23 17 -19 20 -27 11 -36 -9 -9 -12 -9 -12 3 0 8 -7 24 -15 35 -13 17 -13 14
0 -19 15 -37 15 -38 -11 -62 -29 -27 -73 -32 -119 -15 -15 6 -31 8 -36 4 -10
-6 93 -64 113 -64 7 1 0 7 -17 15 -34 15 -33 16 13 19 24 1 36 -4 47 -21 8
-12 15 -25 15 -29 0 -4 -25 -4 -55 -2 -43 4 -64 12 -95 37 -22 17 -40 30 -40
27 0 -16 24 -55 31 -50 5 3 9 -1 9 -9 0 -11 7 -13 21 -10 13 4 27 0 33 -8 12
-15 86 -22 86 -8 0 5 5 9 11 9 18 0 -1 -43 -32 -72 -45 -43 -133 -34 -124 12
2 12 0 18 -6 15 -5 -4 -6 -12 -3 -18 4 -7 -1 -5 -10 4 -11 10 -20 38 -23 75
-7 79 11 101 87 109 76 8 79 19 2 12 -68 -6 -72 2 -14 33 20 10 31 19 24 20
-7 0 -10 5 -7 10 12 20 -5 9 -44 -25 l-38 -35 -6 36 c-4 20 -2 45 3 55 6 10
10 30 10 44 0 20 4 26 16 21 8 -3 12 -2 9 4 -9 15 24 25 38 11 9 -9 9 -16 -1
-31 -10 -16 -9 -18 3 -14 8 4 15 17 15 30 0 17 6 24 19 24 11 0 23 5 27 12 7
11 -4 10 -51 -7 -20 -7 -20 -6 -1 9 11 9 35 16 54 16 19 0 31 4 27 10 -9 14
-59 3 -114 -24 -45 -23 -47 -23 -69 -6 -24 20 -25 61 -2 68 7 3 10 0 6 -7 -4
-7 -1 -9 8 -5 12 5 9 11 -12 30 -15 13 -21 24 -14 24 6 0 12 -4 12 -9 0 -4 13
-8 29 -7 16 1 27 4 24 9 -2 4 19 7 47 7 41 0 56 -5 75 -25 14 -13 25 -35 25
-49 0 -14 5 -28 10 -31 6 -3 10 -18 10 -32 0 -20 -3 -23 -13 -15 -10 8 -13 6
-13 -9 0 -25 8 -24 34 6 12 14 31 25 42 25 20 0 20 -1 4 -25 -17 -26 -23 -27
-124 -30 -77 -3 -106 -13 -118 -40 l-11 -24 34 24 c29 19 41 22 72 15 22 -5
42 -5 48 0 18 15 130 25 121 12 -4 -8 -2 -10 8 -6 8 3 24 0 36 -6 13 -7 25 -8
29 -4 3 5 13 10 21 12 11 2 10 -1 -3 -12 -10 -8 -14 -17 -8 -20 5 -3 23 6 39
21 16 16 41 36 54 45 14 9 36 36 48 60 12 24 27 46 34 50 6 4 -3 8 -21 8 -46
0 -191 -36 -220 -55 -13 -9 -38 -15 -56 -13 l-32 3 39 18 c21 9 42 14 47 11 5
-3 9 1 9 9 0 7 17 25 38 38 41 26 92 115 92 158 0 26 -18 85 -33 108 -7 11
-47 6 -47 -7 0 -11 -87 5 -104 19 -9 8 -13 18 -9 24 3 6 1 7 -6 3 -6 -4 -9
-11 -6 -16 3 -5 1 -20 -5 -32 -11 -22 -10 -22 4 -4 13 16 19 17 28 8 7 -7 28
-12 48 -13 30 0 32 -1 13 -9 -17 -7 -21 -15 -17 -37 7 -36 14 -43 14 -13 0 19
2 20 15 10 12 -10 12 -14 1 -25 -13 -14 -78 -44 -106 -50 -8 -2 -15 -4 -15 -5
0 -1 -8 -3 -18 -5 -22 -4 -57 -34 -57 -48 0 -6 8 -3 18 6 24 22 36 22 28 1 -6
-15 -4 -15 10 -3 10 8 12 15 5 17 -15 5 -14 19 2 19 19 0 17 -28 -5 -59 l-18
-27 -27 25 c-14 13 -35 24 -47 23 -20 0 -20 -1 -1 -8 13 -5 0 -10 -45 -14 -36
-3 -70 -1 -76 4 -6 5 -19 7 -28 3 -12 -4 -16 0 -16 15 0 35 28 93 41 85 8 -4
9 -3 5 4 -12 20 15 49 40 44 13 -2 35 3 49 12 21 14 23 20 15 41 -9 24 -8 25
33 25 23 0 52 3 65 6 16 5 22 2 22 -9 0 -10 -7 -14 -22 -10 -19 4 -20 3 -8 -6
11 -8 2 -10 -35 -6 -50 5 -50 5 -11 -5 22 -6 46 -16 53 -22 12 -10 11 -14 -7
-23 -19 -10 -20 -13 -6 -18 9 -4 16 -14 16 -22 0 -12 -12 -7 -42 19 -41 35
-58 44 -58 29 0 -5 18 -18 40 -31 22 -12 40 -28 40 -34 0 -9 -3 -9 -11 -1 -6
6 -18 9 -27 6 -11 -5 -13 -3 -7 8 4 8 4 11 0 6 -5 -4 -20 3 -34 15 -24 22 -24
22 2 -11 22 -26 25 -36 16 -48 -9 -11 -9 -17 1 -26 10 -9 14 -9 17 1 3 6 9 10
13 7 5 -3 14 4 20 15 6 11 15 18 20 15 5 -3 13 3 19 12 7 13 5 23 -6 35 -9 10
-11 18 -5 18 6 0 14 -5 18 -11 4 -8 9 -7 15 2 5 8 0 18 -12 27 -18 12 -19 16
-6 31 8 9 17 26 20 39 6 27 -25 39 -63 22 -23 -10 -22 -10 10 -5 29 4 32 3 16
-6 -13 -8 -29 -9 -52 -1 -20 6 -34 6 -34 1 0 -5 -8 -9 -17 -9 -14 0 -11 6 12
25 17 13 36 24 43 25 7 0 11 4 8 9 -3 4 5 13 18 19 18 8 25 6 34 -9 7 -10 8
-19 3 -19 -6 0 -13 5 -16 10 -3 6 -12 10 -18 9 -7 0 -6 -3 2 -6 10 -4 8 -9
-10 -20 -17 -10 -18 -12 -4 -7 11 3 25 6 30 5 46 -5 59 -10 74 -30 24 -31 72
-33 128 -4 80 40 94 64 48 85 -19 8 -28 8 -40 -2 -8 -7 -15 -8 -15 -3 0 14 44
53 61 54 8 0 6 4 -6 9 -16 7 -12 9 18 9 24 1 36 -3 32 -9 -4 -6 -1 -9 7 -8 17
4 18 -44 1 -49 -7 -3 -13 2 -13 11 0 10 -8 16 -22 15 -16 -1 -18 -3 -7 -6 10
-2 19 -13 22 -24 7 -25 33 -25 47 0 13 26 -4 65 -35 79 -28 13 -78 1 -107 -25
-20 -18 -20 -18 -6 17 8 19 24 39 36 45 21 9 30 25 14 25 -23 0 -53 -37 -67
-82 -8 -28 -15 -54 -15 -57 0 -3 16 10 35 29 19 18 38 31 41 27 4 -4 -1 -9
-10 -13 -17 -6 -46 -53 -46 -74 0 -7 8 -9 20 -5 36 12 21 -5 -20 -21 -23 -9
-39 -19 -36 -22 8 -7 99 37 114 56 11 14 12 14 12 -2 0 -20 -103 -70 -129 -61
-9 2 -21 15 -26 27 -6 13 -14 23 -20 23 -9 0 -34 16 -87 55 -11 9 -19 24 -17
35 4 18 4 18 19 0 12 -15 12 -17 1 -10 -10 5 -12 4 -7 -3 11 -17 56 -14 63 4
3 8 1 20 -6 27 -8 8 -11 5 -11 -11 0 -27 -16 -29 -23 -2 -6 24 -35 27 -44 4
-3 -8 0 -27 6 -40 10 -22 9 -25 -6 -22 -10 2 -19 13 -21 26 -4 24 -21 29 -40
10 -9 -9 -12 -6 -12 15 0 15 5 27 11 27 5 0 8 -3 6 -7 -3 -5 5 -8 18 -8 13 0
21 3 18 8 -2 4 -12 7 -20 7 -13 0 -10 8 13 32 28 30 26 31 -23 11 -11 -4 -14
-3 -8 6 6 10 3 11 -14 2 -24 -13 -29 -23 -7 -15 24 9 28 -14 5 -26 -17 -9 -20
-9 -14 0 5 8 3 11 -5 8 -20 -6 -24 -28 -6 -28 22 0 20 -33 -4 -80 -29 -56 -25
-60 11 -9 45 64 53 69 45 34 -4 -16 -16 -39 -27 -51 -10 -11 -19 -26 -19 -33
0 -7 -8 -11 -17 -10 -28 4 -63 -11 -63 -27 0 -8 -5 -12 -10 -9 -6 4 -8 10 -5
15 6 9 -59 55 -93 67 -13 4 -12 2 3 -10 20 -16 20 -16 0 -18 -11 -1 0 -5 24
-10 55 -11 73 -26 31 -26 -22 0 -27 3 -18 10 13 9 0 6 -39 -10 -11 -4 -14 -3
-9 5 4 7 2 12 -3 12 -14 0 -14 57 -1 65 6 4 27 -3 46 -14 44 -26 43 -26 40 2
-4 29 -14 47 -28 47 -6 0 -3 -12 7 -26 12 -19 13 -25 3 -22 -7 3 -19 15 -25
29 -7 13 -13 18 -13 10 0 -7 -6 -11 -15 -7 -21 8 -38 -29 -33 -75 2 -21 1 -39
-3 -39 -8 0 -18 -70 -12 -87 4 -9 23 -5 71 13 36 13 68 26 70 28 2 3 -23 2
-56 -1 -42 -4 -62 -2 -67 7 -6 10 2 12 35 7 26 -3 38 -2 30 3 -10 6 -7 9 11
13 13 2 0 2 -30 -1 -39 -3 -52 -1 -47 7 4 6 32 11 61 11 49 0 56 -3 70 -27 9
-16 14 -20 11 -11 -3 10 -1 20 4 23 6 4 10 -3 10 -14 0 -22 -51 -56 -65 -43
-5 4 -5 2 -2 -4 6 -11 -19 -29 -35 -26 -5 1 -8 -1 -7 -6 1 -4 -2 -18 -6 -30
-6 -18 -10 -21 -17 -10 -7 10 -8 9 -4 -4 3 -11 0 -18 -7 -18 -8 0 -9 -2 -1 -8
16 -10 27 -49 16 -56 -5 -3 -7 -17 -4 -31 l4 -25 -43 19 c-24 11 -46 28 -48
37 -2 12 2 15 13 11 9 -4 16 -2 16 3 0 6 7 10 15 10 8 0 15 4 15 9 0 6 -12 6
-30 1 -19 -5 -28 -5 -25 1 4 5 1 9 -4 9 -6 0 -11 -7 -11 -16 0 -8 -4 -13 -9
-9 -6 3 -15 -4 -21 -15 -7 -13 -7 -20 0 -20 5 0 10 7 10 16 0 8 5 12 10 9 8
-5 8 -11 0 -20 -13 -16 3 -30 22 -19 7 4 8 3 4 -4 -4 -7 -4 -12 1 -12 4 0 19
-9 32 -19 l24 -18 -31 -5 c-24 -3 -37 1 -54 19 -17 19 -19 23 -5 17 9 -3 17
-10 17 -15 0 -5 6 -9 13 -9 6 0 -3 14 -20 30 -28 25 -37 28 -58 20 -19 -7 -25
-6 -25 4 0 9 7 12 19 9 23 -6 38 16 20 29 -11 8 -10 9 4 4 9 -3 17 -1 17 4 0
6 -4 10 -9 10 -5 0 -7 9 -4 20 3 12 0 20 -6 20 -7 0 -10 -4 -7 -8 3 -5 -1 -20
-9 -35 -10 -19 -10 -27 -2 -30 7 -3 2 -4 -10 -4 -26 1 -28 8 -11 25 9 9 9 12
-1 12 -8 0 -10 7 -6 20 7 23 -1 26 -21 6 -10 -11 -11 -15 -1 -19 8 -3 6 -10
-8 -20 -24 -19 -25 -19 -18 16 3 16 16 34 32 42 18 10 21 14 9 15 -9 0 -20 -5
-24 -11 -4 -7 -18 0 -38 18 l-31 28 29 -32 c37 -41 20 -44 -19 -3 -29 31 -29
40 0 44 9 1 20 7 23 13 4 5 14 13 22 16 9 3 3 6 -13 6 -19 1 -26 -3 -21 -11 4
-7 3 -8 -4 -4 -7 4 -12 2 -12 -3 0 -6 -6 -11 -14 -11 -18 0 -26 -33 -12 -45 6
-6 23 -18 38 -28 18 -11 25 -22 21 -33 -5 -14 -9 -13 -24 7 -15 20 -20 22 -31
11 -11 -11 -10 -12 5 -7 10 4 17 2 17 -4 0 -6 -6 -11 -12 -12 -7 -1 -2 -4 11
-8 14 -4 27 -13 29 -20 3 -10 0 -12 -12 -8 -9 4 -16 2 -16 -3 0 -6 14 -10 31
-10 17 0 37 -6 45 -14 19 -19 18 -27 -3 -20 -15 5 -15 4 -3 -5 11 -7 19 -6 33
7 16 14 19 14 27 2 5 -8 15 -15 22 -15 7 0 14 -8 16 -18 4 -20 -2 -19 -106 10
-49 13 -52 16 -35 29 10 7 14 14 9 14 -5 0 -18 -7 -27 -16 -17 -15 -20 -15
-44 0 -15 10 -35 15 -48 11 l-22 -5 23 11 c12 7 22 16 22 21 0 5 10 7 23 3 19
-5 20 -4 5 5 -10 6 -18 22 -18 35 0 13 -5 27 -10 30 -6 4 -8 11 -4 16 3 5 10
6 16 3 7 -4 8 -2 4 5 -6 9 -11 9 -22 0 -31 -25 -11 5 30 47 44 45 45 45 109
42 49 -1 61 -5 53 -14 -6 -7 -17 -9 -26 -4 -12 6 -15 2 -15 -21 0 -32 11 -39
18 -11 5 16 11 -63 7 -83 -1 -5 2 -6 7 -2 4 5 8 14 8 20 0 22 25 17 35 -7 11
-29 23 -36 14 -8 -4 11 -3 13 3 5 6 -8 14 -9 23 -3 8 6 20 10 25 10 6 0 3 -5
-5 -10 -13 -8 -13 -10 2 -10 22 0 48 27 48 51 0 29 -3 34 -22 33 -10 -1 -16 2
-13 5 2 4 0 13 -5 21 -5 9 -4 20 3 29 9 12 9 13 0 7 -9 -5 -13 -1 -13 13 0 11
5 23 10 26 6 4 8 11 4 16 -5 9 -21 7 -64 -9 -12 -5 -13 -3 -2 10 10 12 9 18
-3 28 -8 7 -15 17 -15 23 0 6 11 0 24 -12 41 -38 71 -18 69 46 -1 11 27 26 50
28 4 0 12 7 17 15 7 11 10 11 10 2 0 -7 5 -10 11 -6 7 4 8 9 0 17 -7 7 -15 6
-25 -2 -12 -10 -15 -9 -18 6 -2 10 -12 18 -22 18 -11 0 -21 6 -24 14 -5 16 27
8 73 -18 36 -21 78 -90 64 -107 -6 -7 -4 -16 6 -24 21 -17 20 8 -2 71 -16 45
-24 52 -80 81 -35 17 -63 32 -63 33 0 2 7 8 16 16 14 11 15 10 12 -6 -2 -12 3
-20 12 -20 17 -1 30 14 30 34 0 11 -4 9 -15 -5 -8 -10 -15 -14 -15 -7 0 6 5
15 10 18 6 3 10 11 10 16 0 6 -4 7 -10 4 -5 -3 -10 -2 -10 4 0 16 18 22 24 9
3 -7 3 -2 -1 12 -3 14 -7 34 -8 45 -4 35 -5 36 -14 31 -5 -4 -19 9 -30 28 -38
61 -54 64 -25 4 18 -38 32 -55 43 -53 11 2 16 -5 18 -23 l1 -27 -15 25 c-8 14
-12 18 -10 10 3 -8 8 -24 12 -35 6 -20 6 -20 -7 0 -7 11 -39 47 -71 80 l-58
60 52 -80 c60 -92 73 -108 64 -80 -7 20 -6 20 9 1 21 -26 20 -35 -1 -31 -10 2
-18 4 -18 5 0 1 -10 3 -23 6 -19 3 -21 1 -13 -14 6 -11 6 -24 0 -33 -6 -10 -9
-10 -9 -1 0 6 0 15 0 20 -1 11 -60 70 -95 95 -20 15 -8 -4 38 -60 67 -81 86
-113 45 -77 -14 12 -18 14 -13 4 5 -9 5 -12 -1 -7 -5 5 -9 13 -9 19 0 6 -29
31 -64 56 -80 57 -76 45 11 -36 37 -34 65 -62 63 -62 -3 0 1 -10 10 -23 8 -13
13 -26 10 -29 -3 -2 2 -5 10 -5 8 0 12 4 9 8 -2 4 0 10 6 14 5 3 10 3 11 -2 0
-4 2 -15 4 -24 5 -27 -37 -17 -65 15 -14 17 -25 34 -25 38 0 5 -29 27 -65 50
l-65 40 95 -96 c52 -53 96 -92 98 -86 5 14 22 12 22 -3 0 -20 -46 -18 -65 3
-25 28 -38 14 -19 -21 23 -46 12 -44 -13 2 -12 21 -18 37 -13 34 5 -3 8 3 7
14 -1 16 -4 18 -17 8 -8 -6 -12 -8 -8 -3 8 9 -16 61 -32 71 -19 12 34 -103 72
-158 11 -16 18 -31 15 -33 -3 -3 -13 5 -21 19 -9 13 -35 39 -58 58 l-42 33 24
-39 c13 -22 32 -52 42 -67 21 -31 24 -45 5 -29 -8 6 -18 7 -22 3 -5 -4 -5 -2
-1 5 4 7 -10 23 -32 39 -37 27 -41 36 -87 183 -27 86 -55 166 -62 178 -10 15
-33 26 -71 34 -79 18 -122 60 -122 121 0 57 11 74 38 59 35 -19 72 -14 72 9 0
11 5 20 10 20 6 0 10 9 10 19 0 11 4 22 9 25 17 11 -1 46 -23 46 -46 0 -124
31 -181 72 l-58 41 6 -104 c11 -160 -10 -207 -97 -216 -60 -7 -69 -20 -64 -90
3 -47 19 -89 86 -227 92 -188 93 -203 18 -193 -26 4 -35 2 -25 -4 7 -5 22 -9
32 -9 9 0 17 -7 17 -15 0 -19 -4 -19 -41 0 -24 13 -28 20 -23 40 4 18 2 25 -9
25 -8 0 -22 20 -32 46 -18 46 -18 47 -31 23 -14 -27 -9 -41 7 -19 9 12 10 10
6 -7 -3 -12 0 -21 5 -20 17 3 20 -20 3 -27 -10 -3 -18 1 -22 12 -3 9 -15 25
-27 34 -18 15 -21 28 -21 102 0 54 4 86 11 86 42 0 61 64 30 99 -10 11 -13 22
-8 25 6 3 8 23 6 44 -5 40 15 89 35 84 7 -1 9 2 5 9 -5 9 -2 10 10 6 10 -4 15
-3 11 3 -3 6 -2 10 4 10 5 0 13 -4 16 -10 10 -16 30 -11 58 14 25 23 25 26 23
150 -1 69 2 126 7 126 4 0 5 5 1 11 -4 8 -9 7 -16 -2 -8 -11 -9 -10 -5 2 3 9
0 22 -6 28 -18 18 -28 12 -17 -10 10 -17 7 -27 -14 -58 -14 -20 -26 -46 -25
-57 1 -15 3 -14 9 6 7 23 8 22 9 -11 1 -21 8 -42 18 -50 15 -13 15 -12 5 8
-16 29 -15 64 3 86 7 11 11 26 8 35 -4 10 -2 13 3 9 13 -12 15 -249 2 -240 -6
3 -8 1 -5 -4 9 -14 -19 -37 -33 -28 -8 5 -6 13 5 25 19 21 17 76 -3 72 -8 -1
-11 2 -7 8 4 6 -5 24 -19 41 -14 17 -26 37 -26 45 0 8 -5 14 -11 14 -12 0 -13
3 25 -71 37 -69 31 -99 -24 -134 -43 -27 -71 -79 -64 -117 2 -13 -4 -6 -16 17
-25 51 -19 78 31 132 22 24 39 52 39 65 -1 22 -1 22 -12 3 -6 -11 -22 -32 -36
-47 -14 -16 -22 -28 -17 -28 4 0 1 -8 -7 -17 -35 -40 -33 -57 20 -167 3 -5 -1
-6 -7 -2 -22 14 -51 85 -51 125 0 34 8 49 45 91 25 28 45 54 45 58 0 4 -9 21
-20 37 -22 33 -25 66 -10 96 9 16 7 19 -10 19 -93 0 -223 144 -219 243 0 12 7
1 14 -25 14 -53 53 -124 82 -150 31 -29 112 -60 135 -53 14 5 18 4 14 -4 -14
-22 11 -10 52 25 55 47 56 21 2 -41 -46 -53 -47 -63 -20 -124 11 -24 20 -47
20 -53 0 -5 -20 -31 -45 -57 -36 -39 -45 -55 -44 -82 l1 -34 8 38 c5 25 20 49
48 76 47 43 50 60 22 124 -19 43 -18 83 1 71 5 -3 9 1 9 8 0 7 14 33 31 58
l30 45 -28 23 c-15 12 -51 36 -78 52 -28 16 -61 40 -75 55 -15 16 -30 23 -41
20 -10 -4 -21 1 -27 10 -5 10 -23 17 -43 18 -19 1 -41 10 -49 21 -14 16 -17
17 -29 2 -11 -13 -11 -25 -2 -62 12 -47 40 -106 63 -135 18 -21 98 -75 126
-83 17 -6 22 -14 20 -37 -1 -16 -5 -29 -8 -29 -19 0 -106 69 -144 114 -70 81
-103 155 -97 218 1 20 49 36 116 37 69 2 208 -19 217 -33 6 -8 8 -7 8 1 0 17
58 6 92 -18 15 -10 31 -19 36 -19 4 0 17 -6 27 -14 19 -14 19 -15 1 -35 -24
-26 -39 -102 -19 -94 7 3 13 1 13 -5 0 -5 12 -21 27 -36 42 -42 22 -38 -27 6
-73 65 -147 117 -195 138 -65 28 -55 10 18 -32 35 -20 98 -66 140 -102 157
-133 213 -149 442 -121 161 19 186 18 229 -16 24 -19 26 -27 22 -64 -6 -60
-45 -112 -79 -106 -5 1 -6 -3 -3 -8 4 -5 -4 -13 -16 -17 -28 -9 -120 -7 -127
3 -3 5 -15 10 -26 12 -23 4 -58 21 -53 26 2 2 19 0 38 -4 60 -12 129 4 167 41
33 32 39 42 47 90 7 43 -13 51 -100 43 -47 -4 -72 -10 -64 -15 19 -12 -66 -33
-104 -26 -17 3 -40 8 -51 10 -16 3 -20 -1 -20 -20 1 -13 5 -27 10 -31 4 -5 5
-2 1 5 -9 16 -7 15 39 -8 83 -42 189 -17 219 52 8 18 15 27 15 20 2 -26 -30
-72 -61 -88 -40 -21 -112 -21 -162 0 -62 26 -55 9 8 -20 47 -21 68 -25 112
-22 68 6 104 31 126 89 10 26 17 36 17 24 1 -34 -34 -87 -70 -107 -64 -34
-170 -20 -237 32 l-26 21 -9 -23 c-10 -28 8 -43 109 -94 95 -48 172 -55 229
-22 65 38 114 132 95 182 -4 12 -41 48 -82 81 -102 81 -100 78 -43 70 61 -8
78 -21 69 -49 -6 -18 -5 -19 10 -7 23 19 20 29 -14 61 l-30 28 30 7 c16 4 32
10 35 15 8 13 -63 70 -95 77 -25 5 -27 8 -17 24 7 11 19 19 27 19 13 0 13 -1
0 -10 -16 -10 -13 -11 32 -14 15 -1 24 2 21 8 -4 5 1 7 10 3 10 -3 17 -3 17 1
0 13 -57 30 -87 26 l-28 -4 28 11 c22 9 36 7 69 -5 22 -9 43 -15 45 -12 2 2
-5 7 -16 11 -12 3 -19 10 -16 15 3 4 -5 6 -17 3 -17 -3 -19 -2 -10 5 9 6 -33
9 -120 7 -83 -2 -114 0 -83 5 29 4 38 8 23 8 -16 1 -28 7 -28 14 0 6 3 8 6 5
4 -4 20 5 36 18 34 28 82 39 143 33 24 -3 49 -2 57 3 8 6 -1 9 -27 9 -22 0
-47 5 -55 10 -12 7 -8 11 18 16 17 4 32 11 32 16 0 5 -4 6 -10 3 -5 -3 -10 -3
-10 0 0 7 62 30 73 27 4 -1 7 0 7 3 0 3 -16 12 -36 20 -34 14 -38 13 -62 -5
-14 -11 -27 -18 -29 -16 -6 6 12 38 20 37 4 -1 7 1 7 4 0 3 0 8 0 11 0 4 -7 1
-15 -6 -8 -6 -20 -8 -27 -4 -20 13 -38 13 -35 1 1 -7 -4 -11 -11 -9 -8 1 -11
-2 -7 -8 3 -5 1 -10 -6 -10 -7 0 -9 -3 -6 -7 4 -3 -1 -12 -11 -19 -16 -12 -16
-14 5 -33 13 -12 18 -16 13 -9 -19 23 -10 31 13 12 12 -10 19 -15 14 -10 -4 5
0 20 8 33 9 13 14 27 11 32 -3 4 1 8 9 8 11 0 12 -5 2 -21 -21 -39 -16 -46 16
-23 18 12 37 23 42 24 6 1 19 5 29 9 11 4 17 4 14 -2 -7 -11 -143 -80 -178
-90 -22 -6 -23 -5 -12 9 9 10 10 17 2 22 -5 3 -11 0 -12 -7 0 -7 -2 -17 -2
-23 -2 -17 -17 -35 -28 -35 -6 0 -8 10 -4 25 4 16 1 34 -9 48 -12 17 -15 18
-15 5 0 -9 4 -18 10 -20 5 -2 7 -19 4 -40 -4 -21 -10 -35 -15 -32 -5 3 -6 -2
-3 -10 10 -27 -10 -17 -23 11 -15 32 -16 43 -4 43 5 0 11 -8 14 -17 2 -10 4
-2 3 17 0 19 3 53 7 75 l7 40 -44 -48 c-42 -44 -46 -46 -55 -28 -6 11 -11 30
-11 43 0 13 -3 34 -7 46 -4 18 -8 20 -14 10 -7 -10 -9 -9 -9 4 0 9 -3 25 -6
35 -5 13 1 11 22 -9 21 -21 28 -37 30 -70 3 -72 4 -74 23 -33 10 22 37 57 59
77 44 40 52 58 27 58 -19 0 -81 -69 -79 -87 3 -24 -14 -13 -20 13 -7 27 -48
74 -65 74 -6 0 -13 -11 -17 -25z m138 -33 c-15 -15 -29 -26 -31 -25 -6 4 41
53 50 53 4 0 -4 -13 -19 -28z m183 -22 c4 -6 1 -9 -7 -8 -7 2 -12 -3 -10 -9 1
-7 -2 -13 -8 -13 -5 0 -9 -3 -9 -7 4 -25 -2 -36 -12 -26 -9 9 -6 19 10 42 25
34 27 36 36 21z m85 -14 c0 -2 -7 -7 -16 -10 -8 -3 -12 -2 -9 4 6 10 25 14 25
6z m-497 -42 c4 -1 14 -2 23 -3 13 -1 14 -4 4 -16 -7 -8 -18 -15 -26 -15 -7 0
-21 -11 -31 -24 -15 -19 -22 -22 -40 -13 -13 6 -23 14 -23 19 0 4 -7 8 -15 8
-19 0 -19 7 1 27 17 18 74 33 89 24 6 -3 13 -6 18 -7z m233 -10 c-9 -35 -36
-75 -47 -69 -10 7 7 54 28 77 22 24 26 22 19 -8z m-168 -42 c2 -7 -2 -12 -10
-12 -7 0 -25 -7 -40 -14 -24 -13 -28 -13 -28 -1 0 14 48 44 64 41 6 -1 12 -8
14 -14z m-130 -52 c7 -21 -38 -9 -54 15 -18 27 -44 34 -44 11 0 -8 -6 -16 -12
-19 -10 -3 -10 -8 1 -18 8 -8 11 -9 7 -2 -12 21 12 24 48 6 20 -10 36 -21 36
-25 0 -12 -13 -9 -34 7 -25 19 -33 19 -33 1 0 -8 6 -12 14 -9 7 3 13 -2 13
-11 0 -10 5 -13 17 -9 11 4 14 3 9 -5 -4 -7 -1 -12 6 -13 10 0 10 -2 0 -6 -18
-7 -113 56 -105 71 3 6 15 23 25 39 l20 27 41 -25 c23 -13 43 -29 45 -35z
m177 29 c9 -13 7 -15 -33 -22 -30 -6 -32 -5 -22 13 11 21 45 27 55 9z m68 -10
c23 -12 56 -48 57 -61 0 -5 -7 -8 -15 -8 -8 0 -15 4 -15 9 0 16 -51 42 -71 36
-10 -4 -17 -11 -13 -16 3 -6 -5 -7 -23 -4 -19 5 -24 4 -15 -3 11 -7 11 -10 -3
-15 -9 -4 -13 -3 -10 3 9 14 -9 12 -23 -2 -9 -9 -12 -9 -12 0 0 14 55 44 64
35 4 -4 13 3 22 15 17 25 26 27 57 11z m-143 -13 c0 -16 -14 -35 -22 -30 -6 4
-8 -2 -3 -15 4 -12 2 -21 -4 -21 -12 0 -15 52 -4 63 7 8 33 10 33 3z m-62 -21
c-2 -6 -6 -9 -9 -8 -6 2 -7 -7 -10 -52 -1 -20 -4 -23 -15 -14 -19 16 -18 49 3
71 17 19 37 21 31 3z m213 -42 c5 -14 6 -29 2 -32 -10 -8 -11 -101 -1 -101 15
0 8 -37 -9 -52 -20 -17 -26 -18 -93 -21 -38 -2 -47 1 -55 21 -5 12 -17 22 -26
22 -9 0 -22 7 -29 15 -15 18 -19 91 -5 104 7 6 10 -8 11 -42 1 -29 6 -53 13
-55 6 -2 24 -14 39 -26 23 -19 35 -22 82 -17 l55 6 0 63 c1 64 -12 91 -36 76
-8 -5 -9 -3 -4 5 5 9 2 12 -10 9 -10 -1 -20 -9 -23 -17 -3 -8 0 -11 6 -7 6 3
14 1 17 -5 11 -17 -3 -23 -20 -9 -9 7 -18 10 -22 6 -8 -8 29 -36 39 -30 5 3 8
0 8 -5 0 -13 -17 -14 -24 -2 -3 5 -15 7 -25 4 -32 -8 -33 14 -2 46 31 32 68
40 89 19 9 -9 12 -9 12 0 0 6 -9 17 -20 24 -26 16 -26 28 0 28 13 0 24 -10 31
-27z m-61 8 c0 -8 -58 -33 -69 -31 -9 3 -31 -64 -31 -93 l0 -31 -16 22 c-38
55 -11 129 43 119 13 -2 28 2 34 9 13 16 39 19 39 5z m305 -11 c-11 -5 -32 -9
-46 -9 -15 -1 -30 -8 -33 -16 -6 -16 -74 -50 -83 -41 -13 12 20 45 50 49 25 3
22 4 -18 7 -49 3 -48 4 20 10 39 4 84 7 100 8 25 0 27 -1 10 -8z m-925 -27 c0
-14 11 -46 25 -69 40 -68 148 -121 188 -92 15 11 12 13 -24 15 -57 2 -118 45
-148 106 -13 26 -21 50 -18 53 3 4 13 -11 22 -32 27 -64 68 -100 131 -114 49
-11 61 5 14 19 -42 12 -120 78 -120 101 0 8 15 -4 34 -26 30 -35 70 -59 129
-78 26 -8 21 -32 -12 -55 -28 -20 -28 -20 -81 -1 -67 25 -125 80 -145 138 -18
53 -18 62 -5 62 6 0 10 -12 10 -27z m743 9 c10 -11 14 -26 10 -40 -7 -27 -23
-29 -23 -3 0 10 -7 24 -15 31 -8 7 -15 16 -15 21 0 15 26 10 43 -9z m167 -13
c0 -6 -13 -24 -29 -40 -16 -16 -26 -29 -22 -29 4 0 12 5 18 11 17 17 73 3 108
-26 25 -21 28 -26 15 -35 -8 -5 -33 -10 -55 -10 -37 -1 -39 -2 -21 -15 19 -14
19 -15 -7 -15 -33 0 -92 23 -102 40 -14 22 6 23 35 2 37 -28 53 -28 20 -1 -20
16 -21 19 -5 13 32 -13 116 -14 108 -1 -4 7 0 8 13 3 13 -5 16 -4 9 3 -6 6
-24 7 -47 2 -21 -5 -36 -5 -33 -1 3 5 -5 11 -17 14 -13 3 -1 3 26 1 31 -2 44
0 35 6 -23 14 -83 10 -109 -8 -24 -16 -24 -16 -11 0 16 20 12 21 -23 7 -35
-13 -33 3 2 17 l27 12 -28 -4 c-16 -2 -35 -9 -42 -15 -8 -7 -16 -7 -19 -2 -5
9 42 34 72 38 20 3 42 25 36 35 -3 5 6 9 20 9 14 0 26 -5 26 -11z m68 2 c11
-6 10 -10 -4 -15 -9 -3 -19 -4 -22 -1 -3 3 1 5 9 5 11 0 11 2 -1 10 -8 5 -10
10 -5 10 6 0 16 -4 23 -9z m-268 -41 c0 -10 -4 -22 -10 -25 -6 -4 -10 7 -10
25 0 18 4 29 10 25 6 -3 10 -15 10 -25z m-272 0 c-10 -15 -10 -27 -1 -50 8
-23 8 -30 0 -30 -7 0 -4 -7 5 -14 10 -7 15 -16 12 -19 -4 -3 6 -4 21 -1 21 4
28 0 32 -16 3 -11 12 -20 19 -20 8 0 14 -4 14 -9 0 -15 33 -22 42 -9 4 7 8 9
8 4 0 -5 9 -1 20 9 19 18 20 17 20 -1 0 -31 -20 -44 -66 -44 -53 0 -77 21 -68
58 6 26 6 26 -9 7 -15 -19 -18 -19 -44 -5 -29 16 -42 55 -24 73 7 7 5 14 -6
22 -23 17 -10 65 17 65 18 0 19 -3 8 -20z m217 2 c0 -18 -20 -15 -23 4 -3 10
1 15 10 12 7 -3 13 -10 13 -16z m-272 -42 c-3 -11 0 -27 7 -35 7 -9 10 -18 7
-21 -10 -10 -38 43 -31 60 9 23 23 20 17 -4z m357 6 c0 -43 -14 -76 -31 -76
-19 0 -19 1 -2 27 13 19 14 25 4 18 -11 -6 -13 -4 -8 9 4 10 7 22 7 27 0 5 7
9 15 9 8 0 15 -6 15 -14z m-150 -28 l35 -4 -28 -12 c-35 -15 -67 -1 -67 30 0
20 1 20 13 5 6 -9 28 -17 47 -19z m60 20 c0 -11 -72 -10 -90 2 -10 6 2 8 38 7
28 -1 52 -5 52 -9z m154 -41 c33 -43 33 -52 1 -31 -14 9 -23 19 -21 23 3 4 -4
8 -15 8 -27 2 -24 -10 10 -34 39 -29 67 -33 63 -9 -2 11 1 15 7 11 6 -3 11
-15 11 -27 0 -18 -4 -19 -37 -13 -21 4 -48 16 -60 28 -26 23 -28 20 -12 -20 6
-15 7 -43 4 -61 -6 -31 -9 -33 -33 -27 -43 10 -77 39 -78 68 -1 33 14 30 41
-8 11 -16 25 -29 30 -27 5 2 12 -5 16 -15 5 -12 7 -8 6 14 0 19 -4 30 -10 26
-6 -4 -8 0 -4 9 3 9 0 21 -6 28 -9 10 -9 14 0 17 7 3 20 20 29 39 9 19 20 34
25 34 4 0 19 -15 33 -33z m-146 6 c-2 -10 -14 -20 -28 -22 -25 -3 -25 -3 -6
18 23 26 39 27 34 4z m62 -117 c0 -5 -9 1 -20 14 -11 13 -20 32 -20 44 1 17 5
14 20 -14 11 -19 19 -39 20 -44z m-239 2 c10 -19 9 -19 -20 -3 -17 8 -31 19
-31 24 0 16 40 -1 51 -21z m421 7 c29 -24 29 -25 6 -25 -13 0 -47 -3 -76 -7
-52 -6 -54 -5 -50 18 3 21 7 24 41 21 22 -2 37 1 37 7 0 17 9 13 42 -14z
m-602 -15 c-6 -11 -13 -20 -16 -20 -2 0 0 9 6 20 6 11 13 20 16 20 2 0 0 -9
-6 -20z m185 -66 c18 -7 45 -15 60 -18 38 -7 46 -24 29 -58 -15 -29 -50 -38
-70 -18 -18 18 -52 -31 -58 -81 -5 -38 -2 -52 16 -75 33 -42 47 -52 108 -71
30 -10 60 -22 66 -28 12 -12 34 -71 34 -93 0 -13 -3 -13 -18 1 -23 21 -61 22
-89 2 -20 -14 -25 -13 -56 5 -42 25 -74 32 -82 19 -4 -5 -19 -9 -35 -9 -37 0
-45 -13 -25 -44 9 -14 16 -27 16 -31 -3 -14 28 -72 47 -88 11 -11 18 -25 15
-33 -3 -8 2 -26 12 -40 12 -19 14 -29 6 -37 -8 -8 -14 -8 -23 1 -7 7 -21 12
-33 12 -15 0 -30 19 -58 70 -21 39 -35 70 -32 70 4 0 -2 12 -12 28 -38 55 -93
188 -93 224 0 37 11 51 40 53 83 8 119 50 129 150 4 36 4 71 -1 78 -4 6 -8 27
-8 45 l0 32 42 -26 c23 -15 56 -33 73 -40z m155 47 c0 -5 -7 -12 -16 -15 -24
-9 -28 -7 -14 9 14 17 30 20 30 6z m219 -67 c-41 -41 -147 -46 -195 -9 -17 13
-14 13 25 0 24 -8 57 -15 73 -15 33 0 98 27 98 41 0 5 6 9 12 9 7 0 1 -12 -13
-26z m-581 -118 c-7 -6 -10 -7 -5 -2 4 6 8 21 8 36 2 25 2 25 6 1 3 -13 -1
-29 -9 -35z m-88 31 c0 -2 -10 -12 -22 -23 l-23 -19 19 23 c18 21 26 27 26 19z
m85 -67 c3 -5 2 -10 -4 -10 -5 0 -13 5 -16 10 -3 6 -2 10 4 10 5 0 13 -4 16
-10z m-665 -121 c6 -10 9 -19 6 -19 -9 0 -36 31 -36 41 0 14 18 1 30 -22z
m496 14 c19 -26 17 -33 -10 -33 -25 0 -37 15 -28 38 6 17 23 15 38 -5z m-653
-37 c4 4 7 2 7 -4 0 -6 -4 -14 -10 -17 -5 -3 -10 0 -10 7 0 9 -3 9 -10 -2 -8
-11 -9 -8 -4 13 4 17 2 27 -6 27 -6 0 -8 5 -4 12 5 8 12 3 19 -15 6 -15 14
-24 18 -21z m348 -43 c-12 -20 -14 -14 -5 12 4 9 9 14 11 11 3 -2 0 -13 -6
-23z m1209 -33 c0 -5 -2 -10 -4 -10 -3 0 -8 5 -11 10 -3 6 -1 10 4 10 6 0 11
-4 11 -10z m-1234 -55 c13 -20 14 -48 5 -138 -1 -5 -5 -6 -10 -3 -5 3 -13 0
-18 -7 -7 -11 -8 -20 -4 -51 0 -5 8 -3 17 4 13 12 14 10 3 -13 -7 -15 -16 -24
-20 -21 -5 3 -9 -2 -9 -10 0 -9 7 -16 15 -16 8 0 15 -7 15 -15 0 -8 -5 -15
-11 -15 -5 0 -7 5 -4 10 3 6 1 10 -5 10 -6 0 -13 -7 -16 -15 -4 -8 -10 -12
-15 -9 -5 3 -9 0 -9 -6 0 -6 -4 -8 -10 -5 -7 4 -7 -3 0 -20 12 -32 13 -45 1
-45 -9 0 -21 48 -22 84 0 10 -9 20 -20 23 -22 6 -21 28 2 28 8 1 13 7 11 15
-3 12 -1 12 9 3 9 -10 10 -15 0 -27 -24 -29 8 -26 37 4 17 16 26 32 21 36 -5
3 -6 10 -3 16 4 7 2 8 -4 4 -7 -4 -12 -16 -12 -27 0 -10 -4 -19 -9 -19 -5 0
-8 16 -7 35 2 19 -1 32 -5 29 -5 -3 -9 0 -9 7 0 7 -2 10 -5 7 -3 -3 -1 -18 5
-33 9 -23 8 -26 -3 -17 -8 7 -16 9 -19 6 -3 -3 -10 8 -16 25 -6 16 -8 32 -5
35 4 3 1 6 -5 6 -7 0 -12 7 -12 17 0 15 1 15 19 -1 10 -9 17 -27 16 -39 -1
-12 0 -14 2 -4 3 12 15 17 43 17 22 0 45 7 54 16 23 22 20 25 -11 8 -41 -21
-61 -17 -94 15 -35 36 -37 64 -5 96 33 33 101 33 122 0z m166 18 c-6 -2 -9
-10 -6 -15 4 -7 2 -8 -5 -4 -13 9 -5 26 12 25 9 0 8 -2 -1 -6z m529 -8 c25
-10 29 -14 14 -15 -12 0 -27 6 -34 13 -11 10 -13 9 -9 -3 3 -10 18 -15 44 -16
31 -1 38 -4 36 -17 -4 -25 13 -20 33 9 9 14 23 23 30 20 8 -3 16 0 19 7 2 7 5
4 5 -5 1 -11 -6 -18 -18 -18 -11 0 -22 -4 -25 -9 -4 -5 4 -7 16 -4 17 3 19 2
9 -5 -9 -7 -10 -11 -2 -17 7 -4 16 5 22 24 14 40 26 39 42 -1 12 -28 12 -34
-1 -42 -11 -7 -12 -10 -2 -16 10 -6 10 -12 -4 -25 -19 -19 -17 -30 20 -114 13
-29 24 -57 24 -61 0 -5 -23 -10 -50 -12 l-50 -3 0 33 c0 18 6 48 14 66 7 18
12 47 10 64 -3 23 0 32 11 32 21 0 19 14 -5 35 -11 10 -20 15 -20 12 0 -4 -11
-2 -25 3 -16 6 -25 6 -25 0 0 -6 -7 -10 -15 -10 -8 0 -15 5 -15 10 0 6 -7 10
-16 10 -8 0 -12 5 -9 10 3 6 2 10 -3 10 -14 0 -22 -27 -15 -47 4 -11 3 -14 -5
-9 -7 4 -12 2 -12 -4 0 -6 -4 -8 -10 -5 -5 3 -10 -1 -10 -9 0 -8 5 -18 10 -21
6 -3 10 -1 10 5 0 6 5 8 10 5 15 -10 12 -25 -6 -25 -35 0 -54 45 -23 55 12 4
18 12 15 21 -3 8 -1 14 4 14 6 0 10 5 10 10 0 7 -7 7 -21 -1 -17 -9 -19 -13
-8 -20 11 -6 10 -9 -3 -14 -10 -4 -23 -5 -30 -2 -8 4 -7 6 4 6 18 1 14 31 -4
31 -5 0 -6 -4 -3 -10 3 -5 1 -10 -6 -10 -7 0 -9 9 -5 23 3 12 6 28 6 35 0 7 4
11 10 7 5 -3 6 -13 3 -23 -3 -9 -3 -14 1 -10 4 3 9 14 11 25 4 23 4 23 9 23 2
0 19 -7 37 -15z m-81 -5 c0 -5 -4 -10 -10 -10 -5 0 -10 5 -10 10 0 6 5 10 10
10 6 0 10 -4 10 -10z m613 -23 c-16 -24 -9 -62 15 -72 26 -12 29 -30 5 -39
-10 -4 -20 -1 -26 9 -7 13 -12 14 -23 4 -8 -7 -14 -8 -13 -3 3 19 -1 35 -9 30
-5 -3 -9 1 -9 9 0 11 4 12 14 4 14 -13 14 -13 19 16 2 16 7 39 13 63 1 2 6 0
11 -3 6 -4 7 -12 3 -18z m-1687 -77 c-1 -29 5 -57 17 -77 22 -38 5 -45 -19 -8
-10 16 -17 52 -19 102 -2 69 -1 74 10 52 8 -13 13 -45 11 -69z m1398 -20 c12
-36 22 -72 21 -80 0 -8 3 -18 8 -21 4 -3 10 -22 13 -41 5 -29 3 -37 -13 -42
-10 -3 -26 -19 -36 -35 -22 -37 -53 -46 -61 -17 -9 33 -8 34 20 38 45 5 51 29
25 93 -24 57 -24 63 -17 150 6 61 7 66 13 40 3 -11 15 -49 27 -85z m-1160 60
c12 -22 15 -40 11 -62 l-7 -32 -22 45 c-32 67 -18 108 18 49z m946 -15 c0 -11
8 -13 30 -8 18 3 30 1 30 -5 0 -5 -9 -8 -20 -5 -11 3 -20 0 -20 -6 0 -6 7 -8
17 -4 13 5 15 2 10 -13 -6 -17 -6 -17 5 -3 7 9 20 14 28 11 13 -5 13 -3 1 12
-8 9 -11 19 -7 23 8 8 12 3 20 -24 6 -18 3 -23 -11 -23 -20 0 -96 -59 -77 -60
6 0 17 7 24 15 7 8 16 12 21 9 5 -3 9 0 9 7 0 7 10 2 21 -10 17 -18 19 -25 9
-31 -7 -5 -9 -13 -5 -21 5 -8 4 -11 -1 -6 -5 5 -9 17 -9 28 0 10 -3 19 -7 19
-32 1 -38 -2 -38 -14 0 -9 -7 -12 -20 -9 -11 3 -20 12 -20 19 0 8 -8 15 -17
15 -16 1 -16 2 0 6 14 4 17 11 13 29 -4 14 -2 24 4 24 7 0 7 6 0 20 -7 14 -7
20 0 20 5 0 10 -7 10 -15z m-1005 -25 c4 -6 11 -7 17 -4 7 4 8 2 4 -4 -4 -7
-1 -12 6 -13 10 0 10 -2 1 -6 -7 -2 -13 -9 -13 -14 0 -6 4 -8 9 -4 12 7 33
-29 24 -39 -3 -3 -1 -6 5 -6 7 0 12 -4 12 -9 0 -8 -8 -11 -45 -20 -5 -1 -11 2
-13 8 -2 6 2 9 10 6 9 -4 14 2 14 15 0 11 -6 20 -14 20 -7 0 -10 -5 -6 -12 4
-7 3 -8 -4 -4 -6 4 -9 13 -6 20 3 7 -2 19 -10 26 -9 7 -13 17 -10 22 3 5 -2
19 -13 30 -18 21 -18 21 4 9 12 -6 25 -16 28 -21z m423 -55 c3 -15 -2 -17 -33
-13 -34 4 -38 1 -56 -34 -13 -25 -26 -38 -39 -38 -24 0 -25 8 -3 39 9 14 11
21 5 17 -13 -8 -16 12 -6 38 12 31 26 16 22 -23 -2 -22 0 -37 4 -35 5 3 8 17
8 32 0 38 46 67 75 48 11 -7 22 -21 23 -31z m-328 5 c0 -19 -17 -36 -26 -27
-3 2 -2 16 2 31 7 28 24 26 24 -4z m1010 5 c0 -8 -2 -15 -4 -15 -2 0 -6 7 -10
15 -3 8 -1 15 4 15 6 0 10 -7 10 -15z m-830 -15 c0 -5 -5 -10 -11 -10 -5 0 -7
5 -4 10 3 6 8 10 11 10 2 0 4 -4 4 -10z m355 -9 c-3 -6 -16 -16 -28 -22 -21
-11 -21 -10 2 15 23 25 40 29 26 7z m1165 -10 c-6 -12 -15 -21 -21 -21 -5 0
-2 11 8 24 21 28 29 27 13 -3z m162 -35 c16 -23 7 -30 -10 -8 -10 13 -29 29
-42 35 -13 7 -26 19 -28 27 -5 15 65 -33 80 -54z m148 55 c0 -14 -18 -23 -30
-16 -6 4 -8 11 -5 16 8 12 35 12 35 0z m-1125 -20 c3 -5 1 -12 -5 -16 -5 -3
-10 1 -10 9 0 18 6 21 15 7z m-873 -28 c11 -9 18 -11 18 -5 0 7 7 12 15 12 23
0 18 -20 -7 -29 -23 -9 -58 10 -58 31 0 13 12 10 32 -9z m433 -23 c-4 27 -3
32 7 22 7 -7 14 -41 16 -77 l4 -65 -30 0 c-17 0 -37 -3 -45 -6 -37 -14 -32
106 5 146 l22 23 13 -39 13 -39 -5 35z m-695 5 c13 -14 20 -25 17 -25 -4 0 1
-12 10 -27 14 -21 15 -25 3 -18 -38 22 -70 49 -75 63 -5 13 -2 12 14 -2 14
-13 21 -14 27 -5 4 7 3 10 -2 6 -6 -3 -15 3 -22 14 -17 27 0 24 28 -6z m1156
16 c-3 -5 1 -11 9 -15 8 -3 15 -11 15 -18 0 -9 -3 -8 -10 2 -5 8 -10 11 -10 7
0 -4 -6 -2 -14 5 -15 14 -12 28 5 28 6 0 8 -4 5 -9z m-561 -27 c11 -17 14 -35
10 -52 -5 -20 -8 -23 -16 -11 -5 7 -9 19 -9 24 0 6 5 3 10 -5 13 -20 13 -4 -1
21 -5 11 -15 16 -21 13 -8 -5 -9 -1 -4 12 5 14 4 16 -5 7 -13 -13 -3 -37 12
-28 5 4 9 2 9 -4 0 -20 -19 -21 -30 -1 -9 16 -8 25 1 36 16 20 24 18 44 -12z
m643 -2 c2 -7 -2 -10 -12 -6 -9 3 -16 11 -16 16 0 13 23 5 28 -10z m-965 -3
c9 0 17 -6 17 -14 0 -7 7 -15 15 -19 8 -3 14 -9 13 -13 0 -4 4 -21 11 -37 10
-26 9 -32 -11 -53 -17 -18 -19 -26 -10 -35 9 -9 12 -8 12 5 0 9 5 17 10 17 6
0 10 -4 10 -9 0 -5 9 -7 20 -4 12 3 20 0 20 -7 0 -8 -9 -11 -25 -8 -38 8 -40
-8 -6 -51 17 -21 31 -44 31 -49 0 -6 9 -14 21 -17 17 -6 18 -9 7 -23 -12 -15
-11 -16 5 -3 9 8 20 12 22 9 8 -8 -6 -38 -18 -38 -6 0 -21 -10 -34 -22 -19
-18 -23 -19 -23 -5 0 9 -6 20 -14 24 -8 4 -15 13 -15 18 -1 6 -6 10 -13 10 -6
0 -13 6 -16 14 -3 8 0 11 7 7 6 -4 11 -3 11 3 0 6 12 14 26 17 18 5 22 9 13
15 -7 4 -25 1 -41 -7 -25 -13 -28 -13 -28 1 0 10 5 13 12 9 7 -5 8 -3 3 6 -5
9 -2 10 13 6 12 -4 23 -2 28 5 4 8 3 9 -4 5 -6 -4 -26 0 -44 9 -29 14 -31 14
-14 0 11 -8 14 -15 8 -15 -7 0 -12 -12 -13 -27 -1 -23 -3 -20 -15 17 l-13 45
4 -45 c2 -25 1 -36 -2 -26 -4 15 -7 16 -15 5 -6 -9 -7 -3 -3 21 15 77 14 83
-4 30 -11 -30 -19 -49 -20 -42 -1 7 -5 10 -11 7 -6 -3 -10 4 -10 17 0 17 3 19
9 9 14 -22 23 38 11 74 -8 27 -9 25 -5 -15 l5 -45 -14 37 c-14 36 -12 78 5 78
5 0 5 8 2 18 -6 15 -5 15 10 3 13 -10 15 -17 6 -27 -9 -11 -8 -14 7 -14 14 0
15 -3 6 -12 -7 -7 -12 -16 -12 -22 0 -5 9 2 21 15 l20 24 -33 30 c-58 55 -61
61 -27 63 18 1 28 -2 24 -7 -3 -6 -13 -7 -23 -4 -9 3 -2 -7 16 -23 18 -16 44
-42 57 -59 24 -30 25 -30 31 -8 3 13 10 20 15 17 5 -3 9 0 9 5 0 6 -4 11 -9
11 -5 0 -12 8 -15 18 -3 9 -13 28 -21 42 -14 24 -15 24 -15 3 0 -25 -15 -39
-25 -23 -4 6 -1 17 5 25 10 12 8 15 -11 16 -13 1 -30 1 -36 0 -7 -1 -13 2 -13
8 0 14 22 21 45 15 11 -3 28 -6 38 -5z m1315 -38 c17 27 28 24 41 -11 9 -29 9
-30 -17 -29 -24 0 -25 1 -7 10 18 8 18 9 -5 8 -44 -2 -48 0 -69 39 l-21 37 33
-37 c31 -35 34 -36 45 -17z m-358 13 c0 -2 -9 0 -20 6 -11 6 -20 13 -20 16 0
2 9 0 20 -6 11 -6 20 -13 20 -16z m260 -24 c0 -8 -40 -10 -40 -2 0 4 -3 18 -7
32 l-6 25 27 -24 c14 -14 26 -27 26 -31z m380 46 c0 -2 -9 -6 -20 -9 -11 -3
-18 -1 -14 4 5 9 34 13 34 5z m30 -6 c0 -5 -2 -10 -4 -10 -3 0 -8 5 -11 10 -3
6 -1 10 4 10 6 0 11 -4 11 -10z m-1387 -13 c18 -8 50 -33 71 -57 l39 -43 -29
-24 c-31 -25 -59 -31 -49 -10 4 6 -2 2 -13 -10 -19 -21 -20 -21 -36 -4 -9 10
-14 20 -11 23 3 3 -4 13 -15 23 -11 10 -20 15 -20 10 0 -4 -7 -2 -16 6 -26 22
-37 -9 -13 -42 23 -33 23 -36 3 -36 -17 0 -27 21 -37 74 -6 29 -4 33 29 43 26
9 34 16 29 28 -5 14 10 31 28 32 4 0 22 -6 40 -13z m384 -18 c-2 -17 17 -37
40 -45 6 -1 -38 -83 -47 -89 -5 -3 -10 -11 -10 -17 0 -6 7 -5 18 3 15 13 16
12 3 -3 -7 -10 -17 -16 -21 -13 -5 3 -16 -5 -25 -17 -8 -13 -19 -22 -23 -21
-15 5 -42 -9 -36 -19 4 -6 1 -9 -5 -7 -24 8 -14 25 41 69 31 25 55 47 52 49
-2 2 -13 -4 -23 -13 -19 -17 -19 -17 -16 1 1 10 8 17 15 15 6 -1 8 2 5 8 -4 6
1 20 11 31 9 10 13 19 7 19 -6 0 -33 -36 -61 -79 -27 -44 -61 -85 -73 -91 -23
-12 -23 -12 3 16 23 26 25 34 19 76 -6 37 -4 54 9 76 38 63 123 99 117 51z
m188 8 c12 -10 18 -28 19 -58 1 -37 -2 -44 -19 -47 -25 -3 -56 17 -37 25 6 2
10 9 6 14 -7 12 -40 -6 -48 -28 -4 -10 -4 -14 0 -11 6 7 64 -18 64 -26 0 -37
-49 -48 -88 -20 -26 18 -31 81 -7 90 8 4 15 12 15 19 0 15 47 55 64 55 7 0 20
-6 31 -13z m123 -3 c12 -8 22 -21 22 -27 0 -7 10 -17 22 -22 12 -6 26 -23 31
-39 9 -26 6 -33 -17 -53 -37 -31 -86 -31 -87 0 0 12 -3 16 -6 9 -2 -6 -9 -10
-14 -6 -5 3 -9 -2 -9 -11 0 -9 4 -14 9 -11 5 3 12 -1 15 -10 3 -8 2 -12 -3 -9
-5 3 -12 1 -16 -5 -9 -14 -48 -13 -63 2 -14 14 -16 32 -3 24 5 -3 11 3 14 14
5 21 -7 28 -16 10 -3 -6 -4 -5 -3 2 1 7 18 18 37 25 29 10 33 18 7 14 -5 0 -8
19 -8 44 0 61 39 83 88 49z m677 6 c4 -6 1 -18 -7 -27 -12 -15 -11 -15 12 -3
16 8 21 8 14 1 -6 -6 -19 -13 -30 -15 -15 -3 -19 2 -21 25 -2 29 18 41 32 19z
m356 -40 c6 0 9 -10 7 -22 -3 -24 -20 -28 -27 -7 -2 7 1 9 8 5 6 -4 11 -3 11
3 0 5 -4 12 -9 16 -15 8 -34 -34 -23 -48 5 -7 8 -22 6 -35 -3 -19 -1 -22 16
-17 25 8 25 0 0 -27 -10 -12 -17 -25 -14 -30 3 -5 2 -8 -3 -7 -32 6 -52 -2
-48 -20 2 -14 -4 -21 -21 -25 -13 -4 -24 -11 -24 -16 0 -6 -7 -10 -15 -10 -8
0 -15 -4 -15 -9 0 -15 -41 -24 -53 -12 -9 9 -8 14 3 21 13 9 13 10 0 10 -9 1
-5 6 10 15 14 8 21 14 16 15 -5 0 4 10 20 22 15 12 39 22 53 22 22 -1 23 0 3
3 -12 2 -20 9 -16 14 3 5 9 7 13 5 4 -3 8 1 8 9 0 22 -13 18 -36 -11 -12 -15
-21 -23 -21 -19 0 5 -13 -6 -30 -25 -16 -18 -33 -30 -37 -25 -5 4 -2 10 5 12
6 3 12 11 12 19 0 8 5 14 11 14 7 0 10 12 7 29 -2 17 -1 28 4 25 4 -3 18 2 30
10 21 13 54 20 85 17 7 -1 10 -11 8 -22 -3 -12 -1 -19 2 -15 14 14 12 44 -3
50 -12 5 -14 9 -5 20 9 10 8 16 -4 26 -19 16 -19 26 1 34 12 4 14 1 9 -14 -5
-15 -3 -18 10 -14 9 4 14 13 11 20 -3 8 0 14 7 15 8 0 7 2 -2 6 -11 5 -11 7 0
14 10 6 15 2 17 -16 2 -14 8 -25 13 -25z m-2131 -23 c0 -23 -12 -28 -25 -10
-7 9 -10 24 -8 34 4 16 7 16 19 4 8 -7 14 -20 14 -28z m188 -2 c0 -14 -5 -28
-11 -32 -6 -4 -8 0 -4 10 3 9 1 17 -5 19 -7 3 -9 12 -5 22 9 24 25 12 25 -19z
m1310 -3 l33 -18 -21 -26 c-14 -19 -17 -29 -9 -34 7 -4 9 -3 6 3 -9 14 26 44
40 35 17 -11 20 -44 4 -50 -9 -3 -11 0 -6 8 6 9 3 9 -14 1 -16 -9 -26 -9 -40
1 -10 7 -19 17 -19 21 0 5 -4 12 -8 15 -4 4 -4 1 1 -6 5 -10 2 -13 -11 -10
-23 4 -31 43 -14 64 15 17 17 17 58 -4z m112 8 c-18 -12 -50 -13 -50 -2 0 4
15 9 33 10 24 2 28 0 17 -8z m74 -31 c-24 -26 -29 -39 -31 -87 -1 -31 3 -64 8
-72 6 -12 8 -10 9 9 0 20 2 21 15 11 19 -16 12 -27 -33 -47 -20 -9 -41 -19
-47 -22 -5 -2 -2 8 8 22 20 31 33 102 20 110 -5 3 -8 -8 -7 -26 2 -18 1 -23
-2 -12 -4 11 -11 26 -16 32 -7 9 -3 15 16 23 14 5 26 12 26 16 0 3 -7 4 -15 0
-30 -11 -14 14 28 43 54 38 58 38 21 0z m-1364 -10 c0 -8 4 -8 14 0 10 8 16 8
25 -2 6 -8 8 -17 4 -20 -3 -4 0 -13 7 -22 25 -30 -7 -14 -40 20 -19 19 -29 35
-22 35 7 0 12 -5 12 -11z m1830 2 c0 -5 -7 -12 -16 -15 -24 -9 -28 -7 -14 9
14 17 30 20 30 6z m-1540 -14 c0 -7 -6 -36 -13 -64 -8 -29 -10 -50 -6 -47 4 2
13 29 20 59 13 59 25 70 35 31 6 -26 -14 -74 -41 -96 -13 -11 -20 -10 -43 7
-35 25 -68 91 -53 106 8 8 13 1 17 -21 4 -18 10 -35 15 -37 4 -3 4 9 -2 27
-13 47 -13 48 31 48 26 0 40 -5 40 -13z m1263 -23 c-4 -11 -8 -12 -13 -4 -5 8
-9 6 -14 -6 -3 -9 -9 -14 -13 -10 -8 8 27 47 38 40 4 -2 5 -12 2 -20z m-1799
-67 c-8 -26 -23 -3 -17 27 4 18 3 19 -7 6 -10 -13 -11 -12 -6 3 3 10 6 26 6
35 1 9 7 2 16 -17 8 -19 12 -43 8 -54z m426 49 c0 -7 9 -24 19 -38 28 -34 13
-50 -51 -56 -50 -4 -58 -2 -91 28 -44 38 -47 51 -9 45 16 -3 44 4 72 18 47 24
60 25 60 3z m353 7 c4 -3 -1 -12 -10 -19 -15 -11 -14 -11 10 -7 15 3 27 1 27
-5 0 -6 -12 -13 -27 -15 -26 -4 -25 -4 5 -6 29 -1 32 -3 22 -21 -20 -37 -90
-18 -90 25 0 31 46 66 63 48z m362 1 c28 -11 38 -54 19 -75 -14 -16 -74 -28
-74 -15 0 2 -3 11 -6 19 -4 11 2 17 23 20 25 4 25 4 -7 6 -33 2 -34 2 -16 16
11 8 16 15 12 15 -4 0 -4 5 -1 10 7 11 26 13 50 4z m-925 -44 c-14 -9 -2 -19
31 -25 11 -2 35 -13 52 -24 l31 -20 -44 4 c-38 4 -40 3 -15 -4 79 -23 115 -29
108 -18 -4 6 0 8 9 4 9 -3 25 1 37 9 11 8 21 12 21 8 0 -3 6 -2 13 4 10 9 13
3 12 -26 0 -33 -3 -37 -27 -40 -31 -4 -36 9 -13 28 25 21 17 32 -9 13 -13 -10
-23 -22 -23 -28 2 -12 -27 -8 -68 9 -16 7 -43 17 -59 22 -16 5 -29 13 -28 17
2 4 -12 21 -30 37 -31 29 -32 30 -13 44 13 9 21 11 24 4 2 -6 -2 -14 -9 -18z
m40 9 c0 -6 -4 -7 -10 -4 -5 3 -10 11 -10 16 0 6 5 7 10 4 6 -3 10 -11 10 -16z
m620 -9 c0 -6 11 -16 25 -22 14 -6 26 -18 26 -27 1 -12 2 -12 6 2 3 12 10 16
21 12 10 -4 24 4 38 22 19 23 26 26 41 17 10 -6 25 -24 33 -42 8 -17 24 -33
35 -35 11 -2 8 -3 -8 -2 -15 1 -32 -4 -37 -10 -7 -8 6 -10 48 -7 40 3 88 -4
159 -22 119 -30 197 -32 270 -7 29 10 55 16 58 13 11 -12 4 -20 -22 -25 -16
-3 -46 -10 -68 -16 -63 -17 -122 -13 -235 15 -116 28 -233 38 -262 23 -23 -12
-58 5 -59 29 0 12 -3 11 -9 -6 -5 -12 -17 -25 -25 -28 -16 -7 -95 23 -95 36 0
3 -15 5 -32 4 -24 -1 -26 0 -6 3 24 4 46 40 39 66 -1 5 2 6 7 3 4 -2 14 -1 22
5 20 12 30 11 30 -1z m446 -35 c2 -22 0 -23 -14 -9 -13 14 -13 17 -1 25 8 5
14 9 14 9 0 0 1 -11 1 -25z m-626 9 c0 -3 -12 -9 -27 -15 -18 -7 -30 -6 -37 1
-8 8 -6 9 8 4 11 -4 17 -3 14 2 -4 5 5 10 18 10 13 1 24 0 24 -2z m20 -24 c0
-18 -42 -32 -90 -28 -27 1 -46 0 -43 -4 2 -5 14 -9 26 -9 17 -1 15 -3 -8 -8
-21 -6 -34 -3 -42 8 -20 23 -16 26 35 29 27 1 62 7 78 12 40 11 44 12 44 0z
m1300 6 c0 -3 -4 -8 -10 -11 -5 -3 -10 -1 -10 4 0 6 5 11 10 11 6 0 10 -2 10
-4z m-2311 -35 c11 -11 16 -23 13 -26 -4 -4 3 -4 16 0 17 5 44 -4 98 -30 41
-20 74 -40 75 -43 0 -4 2 -15 4 -24 2 -10 0 -17 -3 -16 -4 1 -22 -6 -41 -14
-27 -12 -41 -13 -60 -5 -50 21 -80 48 -91 81 -6 19 -18 40 -26 46 -13 12 -20
50 -9 50 3 0 14 -9 24 -19z m793 -11 c3 -16 1 -30 -4 -30 -4 0 -8 14 -8 30 0
17 2 30 4 30 2 0 6 -13 8 -30z m27 -18 c1 -7 -3 -10 -9 -7 -5 3 -10 18 -9 33
0 24 1 25 9 7 5 -11 9 -26 9 -33z m31 -6 c0 -6 -7 -2 -15 8 -8 11 -15 25 -15
30 0 6 7 2 15 -8 8 -11 15 -25 15 -30z m935 32 c14 -6 25 -15 25 -20 0 -13
-13 -9 -40 12 -28 22 -23 25 15 8z m-1424 -8 c19 -6 46 -21 59 -35 12 -13 27
-22 33 -18 6 3 7 1 3 -5 -4 -6 -1 -20 6 -32 10 -16 10 -24 1 -40 -7 -10 -10
-27 -6 -37 4 -13 -3 -9 -25 11 -29 26 -61 29 -45 3 4 -7 0 -6 -10 2 -9 7 -17
22 -17 32 0 26 41 25 65 -1 10 -11 22 -17 27 -14 5 4 -11 21 -36 39 -25 18
-42 36 -38 40 4 5 1 5 -5 1 -7 -4 -13 -2 -13 4 0 6 -5 8 -12 4 -8 -5 -9 -1 -4
12 6 15 5 17 -5 7 -18 -18 -34 -16 -19 2 16 19 3 20 -16 1 -12 -12 -10 -16 14
-24 15 -6 34 -16 42 -24 8 -7 13 -12 11 -11 -2 2 -10 -2 -16 -7 -9 -7 -22 -7
-40 0 -16 6 -47 9 -69 8 -40 -3 -41 -2 -44 30 -2 18 2 40 9 48 14 17 96 19
150 4z m752 -7 c3 -5 -20 -9 -51 -10 -32 -1 -101 -13 -156 -27 -54 -14 -125
-26 -158 -26 -74 0 -188 29 -181 46 3 8 17 7 54 -7 68 -26 172 -24 279 5 83
23 204 34 213 19z m1342 -3 c-3 -5 -13 -10 -21 -10 -9 0 -12 -5 -8 -12 5 -8 0
-9 -17 -5 -13 4 -31 7 -39 8 -8 0 8 7 35 14 28 7 51 13 53 14 2 0 0 -3 -3 -9z
m-1295 -29 c0 -16 -46 -24 -68 -12 -12 6 -27 11 -34 11 -7 -1 1 -7 17 -16 30
-14 30 -14 -20 -9 -39 4 -46 2 -31 -6 26 -16 112 -5 136 16 28 25 106 24 150
-3 36 -22 123 -31 134 -13 3 5 -16 7 -42 4 l-47 -4 30 15 c35 17 28 21 -11 5
-31 -11 -74 -5 -74 12 0 18 148 7 245 -18 104 -26 220 -29 280 -8 54 20 79 19
100 -5 17 -19 17 -22 1 -80 -16 -56 -16 -64 -2 -85 14 -21 14 -26 -1 -55 -13
-28 -14 -40 -3 -87 10 -46 9 -58 -3 -77 -26 -39 -71 -51 -136 -38 -66 14 -85
10 -203 -44 -79 -37 -89 -39 -190 -40 -77 -1 -114 -6 -130 -16 -21 -14 -26
-14 -47 0 -17 12 -51 16 -129 17 -102 1 -112 3 -209 43 -108 45 -141 50 -239
37 -59 -7 -62 -7 -97 25 -40 35 -57 79 -55 148 0 23 -4 48 -10 55 -7 8 -6 18
4 31 8 12 14 44 14 80 0 97 46 128 136 90 57 -24 188 -20 295 9 91 24 239 35
239 18z m1174 0 c3 -5 -1 -14 -8 -21 -11 -9 -20 -9 -38 1 -22 12 -22 12 -3 20
27 11 43 11 49 0z m76 -25 c0 -6 5 -4 10 4 5 8 10 10 10 4 0 -5 -13 -23 -29
-38 l-28 -27 -17 26 c-14 21 -14 25 -2 25 8 0 19 -7 24 -16 6 -11 11 -13 16
-5 10 16 -2 31 -25 31 -10 0 -19 4 -19 8 0 5 14 7 30 4 17 -2 30 -9 30 -16z
m-140 -6 c0 -5 7 -7 15 -4 8 4 15 1 15 -5 0 -6 7 -8 17 -4 11 4 14 3 9 -5 -5
-8 -2 -10 8 -6 17 6 21 -12 8 -32 -7 -10 -41 -10 -87 0 -11 2 -25 5 -32 5 -20
2 9 61 29 61 10 0 18 -4 18 -10z m-1964 -30 c43 -15 55 -42 13 -30 -17 5 -36
7 -44 4 -15 -6 -55 12 -55 24 0 12 52 13 86 2z m132 -86 c43 -30 21 -64 -36
-54 -29 4 -36 10 -34 25 3 16 1 17 -12 6 -14 -11 -14 -15 -1 -28 8 -8 31 -17
50 -20 64 -10 54 -43 -13 -43 -25 0 -43 9 -68 34 -41 41 -42 49 -8 75 32 25
90 28 122 5z m-278 -34 c19 -17 20 -21 7 -26 -16 -6 -66 23 -67 39 0 14 37 7
60 -13z m2180 5 l25 -14 -33 -13 c-18 -8 -29 -18 -25 -23 5 -5 0 -3 -9 4 -10
7 -18 17 -18 22 0 5 8 10 18 10 16 1 16 2 -1 6 -18 5 -14 23 6 23 7 -1 23 -7
37 -15z m-2050 -42 c11 -10 20 -22 20 -27 0 -5 -8 -2 -18 7 -21 19 -62 23 -62
6 0 -6 6 -9 14 -6 8 3 22 -1 33 -9 17 -13 17 -14 -2 -8 -16 6 -17 4 -9 -5 9
-10 17 -10 34 -1 32 17 35 6 10 -30 -19 -26 -27 -30 -49 -25 -32 8 -58 31 -77
67 -12 24 -12 28 4 37 27 16 80 13 102 -6z m1971 7 c18 -10 18 -12 -7 -50 -22
-33 -65 -60 -94 -60 -4 0 -15 11 -24 25 -15 23 -15 26 5 49 18 20 26 23 46 15
16 -6 22 -6 18 1 -3 6 -13 10 -21 10 -8 0 -14 5 -14 10 0 13 66 13 91 0z
m-1907 -72 c-4 -7 -3 -8 4 -4 7 4 34 9 62 11 45 3 49 1 40 -15 -5 -9 -6 -20
-3 -24 4 -4 8 -13 9 -20 1 -7 5 -27 9 -44 6 -27 3 -33 -26 -47 -35 -18 -90
-15 -116 6 -8 7 -23 30 -34 51 -18 36 -18 38 -2 29 10 -5 27 -12 38 -16 16 -5
17 -8 5 -15 -17 -11 -9 -13 14 -4 9 3 13 10 10 15 -3 5 5 5 18 0 13 -4 29 -6
36 -4 7 3 10 -1 6 -11 -3 -9 -11 -13 -18 -9 -6 3 -7 2 -3 -3 5 -5 10 -7 11 -4
2 3 10 -1 19 -8 10 -9 17 -10 22 -2 4 6 1 9 -6 8 -6 -2 -14 3 -16 10 -3 7 1
11 7 10 15 -4 22 29 9 38 -5 3 -7 9 -4 14 3 5 1 11 -4 14 -5 3 -12 -1 -15 -10
-4 -9 -13 -14 -22 -10 -10 4 -13 2 -8 -6 5 -8 -6 -9 -41 -5 -27 4 -51 9 -53
12 -7 6 38 55 50 55 5 0 6 -5 2 -12z m92 -74 c2 -12 -1 -13 -11 -4 -8 7 -20 9
-27 5 -7 -4 -4 1 6 9 21 17 29 14 32 -10z m1888 20 c38 -6 44 -9 34 -21 -6 -8
-17 -12 -25 -9 -8 3 -11 2 -8 -4 9 -15 -30 -30 -80 -30 -34 0 -44 3 -38 13 4
6 8 18 10 26 4 30 29 35 107 25z m-93 -123 c22 -21 39 -44 39 -51 0 -10 -3
-10 -15 0 -8 6 -19 9 -24 6 -5 -4 -12 -2 -16 4 -4 6 -10 8 -14 5 -5 -2 -18 7
-31 20 -19 20 -21 27 -10 40 18 22 28 19 71 -24z m-1975 14 c18 -15 18 -16
-11 -40 -16 -13 -31 -22 -33 -20 -2 2 -15 0 -28 -5 -29 -11 -31 0 -8 36 10 14
23 23 30 20 8 -3 13 -2 13 2 -4 26 9 29 37 7z m447 -50 c-20 -19 -41 -31 -46
-28 -6 3 -7 1 -3 -5 4 -7 2 -12 -3 -12 -6 0 -11 9 -11 19 0 12 13 24 38 34 20
9 32 16 25 16 -7 1 -28 -6 -47 -15 -31 -15 -33 -20 -25 -41 5 -14 6 -30 2 -36
-4 -7 1 -6 10 2 34 28 16 -1 -28 -42 -40 -39 -45 -48 -45 -88 0 -25 6 -54 14
-65 14 -17 14 -16 7 16 -10 44 -6 73 15 108 15 26 15 25 10 -35 -5 -59 7 -123
24 -123 5 0 16 -7 25 -16 8 -9 22 -14 29 -11 16 7 26 51 15 69 -7 10 -9 8 -9
-5 0 -10 -5 -15 -10 -12 -6 4 -9 1 -8 -7 2 -7 -6 -13 -17 -13 -27 0 -30 30 -5
55 21 21 27 20 79 -17 2 -1 5 -16 7 -32 2 -20 -1 -29 -9 -27 -6 1 -8 1 -4 -2
15 -8 -15 -32 -40 -32 -26 0 -31 4 -102 67 -46 42 -46 42 -45 105 1 68 35 165
54 153 8 -5 7 -11 -1 -21 -6 -8 -9 -14 -5 -14 3 0 9 -1 13 -2 10 -4 12 31 2
38 -5 3 -9 9 -9 13 0 15 64 41 103 41 l37 0 -37 -35z m1007 17 c0 -25 -11 -34
-26 -21 -7 6 -23 9 -36 6 -20 -4 -20 -4 5 -6 15 0 27 -5 27 -11 0 -11 -32 -12
-70 -1 -22 6 -20 8 25 29 61 26 75 27 75 4z m81 2 c25 -11 36 -20 29 -24 -17
-11 -46 -1 -66 21 -21 23 -16 24 37 3z m-977 -6 c4 4 6 -13 4 -38 -3 -39 -6
-45 -28 -48 -20 -3 -23 -1 -12 9 6 7 12 20 11 29 0 8 -5 4 -10 -10 -10 -24
-11 -24 -25 -6 -16 23 -19 66 -3 66 5 0 8 -4 5 -9 -4 -5 -1 -20 4 -33 l11 -23
-5 23 c-7 36 3 53 24 42 9 -5 21 -6 24 -2z m956 -31 c0 -5 -9 -6 -19 -2 -21 6
-36 -9 -25 -26 4 -8 9 -7 15 2 4 7 11 10 15 6 5 -4 -2 -17 -14 -30 -18 -17
-26 -19 -40 -11 -26 17 -27 44 -3 51 14 4 21 13 21 30 0 24 0 24 25 6 13 -10
25 -22 25 -26z m-1180 23 c0 -5 -7 -10 -15 -10 -8 0 -15 5 -15 10 0 6 7 10 15
10 8 0 15 -4 15 -10z m262 -42 c-9 -9 -12 -7 -12 12 0 19 3 21 12 12 9 -9 9
-15 0 -24z m1054 16 c41 -20 43 -36 8 -63 -30 -24 -64 -30 -46 -8 15 17 -14
61 -34 53 -8 -3 -14 1 -14 9 0 12 15 20 43 24 5 0 24 -6 43 -15z m-1163 -34
c29 -45 28 -46 -14 -24 -25 12 -28 18 -18 30 6 8 9 14 6 14 -2 0 -10 -7 -17
-15 -10 -12 -6 -18 21 -34 37 -23 44 -53 17 -78 -10 -9 -18 -22 -18 -30 0 -7
-7 -13 -16 -13 -13 0 -14 3 -5 14 10 12 8 14 -11 9 l-23 -5 22 20 c21 18 21
32 1 32 -5 0 -6 -6 -2 -12 5 -9 2 -8 -10 1 -21 18 -6 30 39 31 27 1 28 2 9 10
-12 5 -29 19 -38 31 -14 21 -14 24 1 41 22 25 26 23 56 -22z m1065 7 c-2 -12
-12 -21 -25 -23 -16 -3 -21 0 -18 11 3 8 7 22 10 30 7 22 37 6 33 -18z m-936
-8 c-19 -17 -37 -27 -40 -24 -8 8 44 55 61 55 7 0 -3 -14 -21 -31z m781 20 c9
0 15 -4 12 -9 -7 -11 -65 -10 -65 1 0 4 -10 10 -22 13 -13 2 -5 3 17 0 22 -2
48 -4 58 -5z m-719 -5 c9 -3 16 -11 16 -16 0 -6 -6 -6 -14 1 -10 8 -16 9 -21
1 -3 -5 -1 -10 5 -10 6 0 8 -5 4 -12 -5 -8 -2 -9 9 -5 32 12 17 -11 -17 -27
-41 -19 -60 -20 -74 -3 -9 10 -5 17 17 30 15 9 32 13 36 9 5 -4 5 -1 0 7 -4 8
-2 17 6 22 17 11 14 10 33 3z m692 -24 c14 0 22 -4 19 -10 -9 -14 -95 5 -95
20 0 6 11 5 26 0 14 -6 37 -10 50 -10z m-462 4 c24 -9 19 -29 -15 -69 -34 -39
-89 -73 -89 -55 0 6 16 33 35 61 19 28 35 55 35 60 0 10 12 11 34 3z m164 -33
c18 -22 32 -42 32 -45 0 -3 -15 -6 -34 -6 -23 0 -45 9 -63 25 l-28 25 24 20
c13 11 26 20 30 20 4 0 22 -18 39 -39z m83 -4 c11 -21 18 -44 16 -50 -2 -7 2
-27 9 -46 8 -19 12 -36 9 -39 -7 -8 -82 28 -100 48 -15 17 -14 19 14 33 28 14
32 14 40 0 6 -11 10 -12 15 -4 4 6 2 11 -4 11 -6 0 -8 5 -4 11 7 11 -12 29
-31 29 -5 0 -3 -5 5 -10 8 -5 11 -10 5 -10 -5 1 -26 16 -45 36 l-35 35 43 -2
c40 -3 45 -7 63 -42z m446 27 c3 -8 -1 -22 -9 -30 -12 -12 -17 -12 -33 0 -16
12 -17 16 -6 30 17 20 40 21 48 0z m-157 -26 c0 -5 -24 -9 -52 -10 l-53 -1 55
-7 c30 -4 49 -7 41 -8 -11 -2 -11 -5 -1 -17 11 -13 8 -15 -21 -14 -19 1 -45 5
-59 10 -22 7 -20 8 12 6 20 -2 34 1 32 5 -3 4 -18 8 -34 8 -16 0 -32 5 -35 10
-3 6 -1 10 5 10 6 0 9 4 6 8 -3 5 8 6 24 4 21 -3 32 1 36 11 5 13 9 14 25 4
10 -6 19 -15 19 -19z m-451 -54 c-8 -10 -8 -74 0 -74 5 0 41 42 41 48 0 2 -7
-1 -15 -8 -20 -16 -29 -7 -20 19 8 27 14 26 56 -2 27 -19 34 -29 32 -53 -4
-52 -65 -72 -103 -34 -16 16 -20 33 -20 83 0 34 -4 67 -8 74 -4 6 -6 -23 -4
-65 3 -67 1 -81 -18 -105 -35 -44 -120 -81 -120 -53 0 9 5 15 12 13 8 -1 13
16 14 53 1 50 4 57 42 90 23 19 46 49 52 65 l11 30 29 -35 c18 -22 25 -39 19
-46z m-429 50 c0 -9 -8 -18 -17 -20 -15 -4 -17 -14 -15 -55 4 -55 -4 -87 -18
-73 -5 5 -5 29 1 58 7 37 6 52 -3 58 -9 5 -9 8 -2 8 7 0 14 9 17 20 6 24 37
27 37 4z m-150 -4 c-10 -6 -15 -26 -15 -59 -1 -43 1 -49 15 -38 12 9 13 9 3
-3 -22 -25 -40 -20 -40 11 0 16 4 29 9 29 5 0 5 12 2 26 -7 25 7 44 31 44 6 0
3 -5 -5 -10z m1130 -3 c8 -7 16 -30 17 -53 3 -37 0 -42 -32 -57 -23 -11 -36
-13 -41 -6 -7 13 15 30 28 23 5 -3 7 0 6 7 -2 7 2 13 9 14 6 0 15 4 20 9 4 5
4 7 -2 4 -6 -4 -10 7 -10 25 0 26 -5 33 -23 35 -13 2 -30 -2 -38 -9 -19 -15
-14 -61 6 -67 12 -4 13 -2 3 9 -7 7 -13 17 -13 22 0 4 6 5 13 1 9 -6 9 -4 -1
8 -11 13 -9 16 12 20 14 3 23 2 21 -3 -3 -4 -1 -11 5 -14 12 -7 -28 -55 -46
-55 -24 0 -33 67 -12 88 15 15 59 15 78 -1z m148 -60 c4 -45 1 -57 -20 -81
-20 -24 -33 -28 -88 -32 -36 -2 -59 -1 -52 2 10 5 9 9 -5 20 -16 12 -16 15 -3
24 21 14 35 7 34 -19 -1 -25 13 -27 42 -6 12 8 23 12 26 10 2 -2 5 7 6 21 1
13 8 37 16 53 13 25 13 29 -5 41 -18 14 -18 15 4 26 30 17 39 5 45 -59z m-70
30 c22 -26 -23 -125 -45 -103 -4 4 -2 20 4 36 6 17 7 30 2 30 -14 0 -11 38 4
43 20 9 24 8 35 -6z m-1114 -29 c-5 -7 -7 -23 -6 -35 3 -23 -12 -38 -28 -28
-7 4 -2 21 12 46 12 21 23 37 26 35 2 -3 0 -11 -4 -18z m889 2 c12 0 31 -7 41
-15 20 -15 20 -15 0 -30 -10 -8 -30 -14 -44 -14 -23 0 -23 1 -5 9 19 8 19 9
-2 9 -12 1 -24 5 -27 9 -3 5 9 6 26 4 21 -3 29 -1 24 7 -4 6 -18 11 -31 11
-13 0 -27 5 -31 12 -5 8 -2 9 10 5 10 -4 27 -7 39 -7z m-1155 -60 c3 -9 -1
-11 -12 -7 -10 4 -25 7 -34 8 -14 0 -13 2 3 9 25 11 37 8 43 -10z m385 -6
c-22 -16 -33 -18 -33 -3 0 5 5 7 10 4 6 -3 13 1 16 9 3 9 10 13 16 10 5 -3 1
-12 -9 -20z m861 0 c17 -24 17 -27 2 -42 -14 -14 -17 -14 -36 3 -23 21 -25 36
-8 53 16 16 20 15 42 -14z m-354 -9 c0 -7 -7 -15 -15 -19 -16 -6 -19 3 -9 28
7 18 24 12 24 -9z m74 -39 c18 -36 10 -56 -11 -27 -8 12 -12 25 -9 29 3 5 -1
9 -9 9 -8 0 -15 -6 -15 -14 0 -17 -14 -17 -29 0 -14 18 5 37 36 35 14 -2 28
-13 37 -32z m-660 -9 c16 -25 -8 -67 -39 -67 -14 0 -25 3 -25 8 1 14 27 42 41
42 8 0 6 -6 -7 -15 -17 -13 -17 -14 -2 -15 23 0 34 21 17 34 -8 6 -20 19 -28
29 -13 16 -12 17 10 9 13 -5 28 -16 33 -25z m894 8 c40 -46 17 -100 -33 -77
-33 15 -43 57 -19 82 25 25 27 24 52 -5z m-448 -9 c0 4 5 3 11 -3 6 -6 17 -9
24 -7 7 3 16 1 20 -5 8 -13 -25 -72 -37 -65 -4 3 -8 -1 -8 -9 0 -8 -9 -22 -19
-31 -19 -18 -20 -17 -18 58 1 60 4 73 14 64 7 -6 13 -7 13 -2z m135 -7 c0 -8
-5 -13 -11 -12 -6 1 -11 -5 -11 -13 0 -18 11 -18 27 1 16 19 46 14 65 -11 20
-27 18 -37 -5 -24 -13 7 -17 16 -13 28 6 14 4 15 -9 5 -8 -7 -18 -10 -21 -6
-4 3 -7 2 -7 -4 0 -5 -12 -15 -26 -22 -22 -10 -25 -9 -21 2 3 8 -1 26 -8 40
-12 23 -11 26 3 30 25 7 37 2 37 -14z m571 -1 c-13 22 1 13 17 -11 l15 -24
-49 8 c-68 11 -80 20 -44 35 25 10 33 10 49 -4 11 -10 16 -11 12 -4z m-970
-24 c-3 -8 -2 -14 3 -14 14 0 20 -54 9 -68 -8 -9 -7 -11 6 -6 15 6 17 11 20
47 1 16 25 41 33 34 7 -8 -21 -65 -48 -97 -12 -15 -22 -21 -25 -13 -3 6 -16
23 -30 38 -16 17 -23 33 -19 44 4 9 8 23 10 31 2 8 4 15 4 15 1 1 10 1 22 2
14 1 19 -3 15 -13z m460 -113 c-3 -19 -12 -42 -21 -50 -13 -14 -15 -13 -15 11
0 15 5 30 10 33 7 4 6 13 -1 27 -14 27 -29 7 -29 -40 0 -41 -16 -34 -22 9 -4
23 2 39 20 61 l26 30 19 -23 c14 -17 17 -33 13 -58z"/>
<path d="M717 1742 c-21 -23 -22 -46 -1 -66 21 -21 57 -20 77 2 22 24 21 45
-1 65 -24 22 -55 21 -75 -1z m75 -20 c11 -11 9 -17 -10 -33 -24 -19 -51 -14
-67 11 -18 30 50 49 77 22z"/>
<path d="M1466 1745 c-3 -8 -1 -15 4 -15 13 0 22 18 11 24 -5 3 -11 -1 -15 -9z"/>
<path d="M1670 1758 c-2 -5 -3 -11 -4 -15 -1 -5 -5 -14 -10 -22 -7 -11 -5 -13
7 -8 12 4 14 2 10 -11 -5 -13 -3 -14 7 -5 9 8 10 19 2 40 -6 15 -11 25 -12 21z"/>
<path d="M2015 1679 c-4 -5 -4 -13 -1 -16 3 -4 6 0 6 8 0 9 8 5 21 -11 18 -22
19 -22 10 -3 -14 28 -28 36 -36 22z"/>
<path d="M341 1694 c0 -11 3 -14 6 -6 3 7 2 16 -1 19 -3 4 -6 -2 -5 -13z"/>
<path d="M586 1687 c3 -10 9 -15 12 -12 3 3 0 11 -7 18 -10 9 -11 8 -5 -6z"/>
<path d="M1539 1669 c0 -2 -2 -16 -3 -30 -2 -31 18 -29 36 5 6 11 7 18 3 14
-5 -4 -14 -3 -22 3 -7 6 -13 10 -14 8z"/>
<path d="M526 1651 c-4 -5 -2 -12 3 -15 5 -4 12 -2 15 3 4 5 2 12 -3 15 -5 4
-12 2 -15 -3z"/>
<path d="M882 1628 c-8 -10 -3 -13 19 -14 16 -1 28 -1 27 0 -2 1 -10 7 -19 14
-13 10 -19 10 -27 0z"/>
<path d="M1047 1487 c7 -56 13 -60 13 -9 0 22 -4 43 -9 46 -4 3 -6 -13 -4 -37z"/>
<path d="M1022 1470 c0 -19 2 -27 5 -17 2 9 2 25 0 35 -3 9 -5 1 -5 -18z"/>
<path d="M375 1521 c-3 -5 -2 -12 3 -15 5 -3 9 1 9 9 0 17 -3 19 -12 6z"/>
<path d="M644 1383 c4 -7 2 -13 -5 -13 -6 0 -1 -9 12 -20 17 -14 20 -19 9 -20
-9 0 -2 -9 15 -20 47 -31 52 -24 12 18 -20 20 -36 41 -36 45 0 5 -3 12 -7 15
-4 4 -4 1 0 -5z"/>
<path d="M739 1235 c-5 -21 -2 -45 6 -44 6 0 9 7 7 16 -2 8 1 12 7 8 6 -3 11
-2 11 3 0 10 -29 25 -31 17z"/>
<path d="M1836 1497 c3 -10 9 -15 12 -12 3 3 0 11 -7 18 -10 9 -11 8 -5 -6z"/>
<path d="M875 1469 c-4 -5 -11 -7 -16 -4 -5 3 -6 -1 -2 -11 5 -13 2 -15 -18
-10 -19 6 -18 3 9 -14 17 -12 33 -26 33 -31 1 -5 3 -13 4 -19 1 -5 3 -13 4
-17 0 -4 6 -2 12 4 13 13 -16 77 -31 68 -6 -3 -7 1 -4 10 6 14 13 10 44 -20
33 -32 38 -34 50 -20 11 14 10 20 -11 41 -27 26 -65 38 -74 23z m68 -27 c23
-20 22 -35 -2 -21 -22 14 -50 56 -29 44 7 -5 21 -15 31 -23z"/>
<path d="M1212 1455 c-35 -19 -39 -26 -46 -80 -5 -45 -4 -47 6 -20 6 17 27 49
46 73 35 43 34 49 -6 27z"/>
<path d="M1260 1405 c-9 -10 -9 -15 -1 -15 6 0 14 0 18 0 4 0 8 6 9 15 3 19
-10 19 -26 0z"/>
<path d="M1413 1480 c-34 -14 -28 -21 7 -9 17 6 30 13 30 15 0 6 -12 4 -37 -6z"/>
<path d="M1450 1424 c0 -8 5 -12 10 -9 6 4 8 11 5 16 -9 14 -15 11 -15 -7z"/>
<path d="M1526 1431 c-3 -5 1 -14 9 -21 19 -16 -1 -38 -30 -33 -11 2 -14 0 -7
-3 10 -5 10 -9 0 -22 -8 -9 -8 -13 -2 -9 7 4 14 0 17 -7 4 -10 0 -13 -14 -11
-10 2 -19 0 -19 -6 0 -5 11 -9 25 -9 28 0 29 3 16 29 -8 15 -4 21 25 34 18 9
34 21 34 27 0 5 3 9 8 9 16 -3 32 1 32 9 0 11 -39 12 -45 1 -4 -5 -13 -9 -21
-9 -8 0 -13 4 -9 9 3 5 1 12 -4 15 -5 4 -12 2 -15 -3z"/>
<path d="M2455 1330 c-3 -5 -1 -10 4 -10 6 0 11 5 11 10 0 6 -2 10 -4 10 -3 0
-8 -4 -11 -10z"/>
<path d="M2557 1319 c8 -8 16 -8 30 0 16 9 14 10 -11 11 -22 0 -27 -3 -19 -11z"/>
<path d="M2476 1251 c-4 -7 -5 -15 -2 -18 9 -9 19 4 14 18 -4 11 -6 11 -12 0z"/>
<path d="M2428 1203 c7 -3 16 -2 19 1 4 3 -2 6 -13 5 -11 0 -14 -3 -6 -6z"/>
<path d="M826 1391 c-4 -5 -2 -12 3 -15 5 -4 12 -2 15 3 4 5 2 12 -3 15 -5 4
-12 2 -15 -3z"/>
<path d="M942 1328 c2 -6 15 -18 29 -27 l24 -15 -24 27 c-26 29 -35 34 -29 15z"/>
<path d="M1668 1273 c6 -2 18 -2 25 0 6 3 1 5 -13 5 -14 0 -19 -2 -12 -5z"/>
<path d="M810 1270 c0 -6 7 -10 15 -10 8 0 15 2 15 4 0 2 -7 6 -15 10 -8 3
-15 1 -15 -4z"/>
<path d="M1589 1298 c7 -9 9 -23 5 -29 -4 -8 -3 -9 4 -5 7 4 12 3 12 -1 0 -5
-19 -19 -42 -30 -31 -16 -37 -22 -22 -22 25 -1 74 35 74 53 0 7 -10 21 -22 32
-17 14 -20 15 -9 2z"/>
<path d="M1400 1269 c-7 -11 -9 -23 -7 -26 3 -2 8 5 12 17 l7 22 26 -24 27
-23 -24 28 c-14 15 -26 27 -27 27 -2 0 -8 -9 -14 -21z"/>
<path d="M1550 1260 c-8 -5 -12 -12 -9 -15 4 -3 12 1 19 10 14 17 11 19 -10 5z"/>
<path d="M1425 1230 c-7 -11 18 -24 35 -18 6 2 1 9 -9 15 -13 8 -22 9 -26 3z"/>
<path d="M333 1184 c36 -19 31 -26 -11 -15 -24 7 -30 6 -25 -5 3 -7 8 -12 11
-11 17 5 143 -36 132 -43 -7 -4 -8 -10 -4 -13 5 -3 15 1 22 9 11 12 9 16 -10
24 -13 6 -45 24 -73 40 -27 16 -54 29 -60 29 -5 0 3 -7 18 -15z"/>
<path d="M490 1205 c-16 -19 -4 -37 18 -26 9 5 28 14 42 20 22 9 20 10 -14 4
-28 -4 -37 -3 -32 6 10 16 1 14 -14 -4z"/>
<path d="M2126 1153 c-11 -11 -6 -23 9 -23 8 0 15 4 15 9 0 13 -16 22 -24 14z"/>
<path d="M830 1140 c0 -5 7 -10 15 -10 8 0 15 5 15 10 0 6 -7 10 -15 10 -8 0
-15 -4 -15 -10z"/>
<path d="M845 1085 c-64 -33 -89 -102 -61 -169 30 -71 145 -96 210 -45 31 25
51 86 42 131 -14 78 -115 121 -191 83z m105 -25 c11 -11 20 -32 21 -47 4 -105
-13 -143 -66 -143 -47 0 -65 29 -65 103 0 48 4 62 25 82 29 30 58 32 85 5z
m57 -72 c-3 -8 -6 -5 -6 6 -1 11 2 17 5 13 3 -3 4 -12 1 -19z m-193 -23 c3 -8
1 -15 -4 -15 -6 0 -10 7 -10 15 0 8 2 15 4 15 2 0 6 -7 10 -15z"/>
<path d="M1485 1091 c-32 -14 -47 -37 -43 -68 3 -30 24 -44 97 -65 56 -17 72
-39 47 -67 -13 -14 -31 -21 -57 -21 -31 0 -43 6 -61 30 -24 34 -36 37 -45 14
-9 -25 35 -62 82 -69 62 -10 110 13 125 60 11 33 10 40 -7 63 -11 15 -44 36
-74 47 -61 23 -76 50 -34 61 26 7 85 -12 85 -27 0 -5 7 -9 15 -9 16 0 19 18 7
37 -10 16 -110 26 -137 14z m40 -99 c-8 -9 -46 11 -55 28 -9 17 -7 17 24 -3
18 -12 32 -24 31 -25z"/>
<path d="M1710 1086 c0 -7 9 -16 20 -19 18 -5 20 -14 20 -96 0 -88 -3 -97 -32
-92 -5 0 -8 -6 -8 -14 0 -12 14 -15 65 -15 49 0 65 3 65 14 0 7 -9 16 -20 19
-18 5 -20 14 -20 80 0 84 6 107 26 107 8 0 14 7 14 15 0 12 -14 15 -65 15 -49
0 -65 -3 -65 -14z"/>
<path d="M1990 1093 c-30 -12 -50 -37 -50 -63 0 -36 25 -56 80 -65 68 -10 78
-14 85 -36 10 -30 -21 -59 -62 -59 -44 0 -72 15 -83 45 -6 16 -15 23 -25 19
-37 -14 0 -69 56 -84 76 -21 149 15 149 72 0 30 -25 52 -75 64 -79 18 -110 60
-64 85 30 16 95 -4 104 -32 4 -11 12 -18 18 -16 15 5 10 37 -8 56 -14 15 -100
25 -125 14z"/>
<path d="M1208 1073 c-9 -10 -34 -57 -56 -104 -27 -59 -47 -89 -61 -94 -39
-12 -22 -25 34 -25 57 0 66 5 40 24 -13 9 -13 16 -3 44 12 30 16 32 59 32 39
0 47 -4 57 -25 16 -35 15 -55 -3 -55 -8 0 -15 -4 -15 -10 0 -5 25 -10 55 -10
30 0 55 2 55 5 0 3 -15 24 -32 48 -18 24 -48 75 -67 115 -19 40 -38 72 -41 72
-4 0 -14 -8 -22 -17z m33 -61 l16 -38 -33 0 c-19 1 -34 3 -34 5 0 12 25 71 30
71 3 0 12 -17 21 -38z"/>
<path d="M1246 805 c-30 -30 -10 -75 33 -75 19 0 12 17 -9 23 -27 7 -28 50 -2
45 22 -4 30 16 9 20 -8 2 -22 -4 -31 -13z"/>
<path d="M1326 804 c-36 -35 0 -87 44 -64 26 14 26 56 1 70 -25 13 -27 13 -45
-6z m47 -16 c6 -19 -3 -38 -18 -38 -18 0 -28 17 -21 35 7 18 33 20 39 3z"/>
<path d="M1412 784 c4 -47 32 -68 54 -40 16 23 19 62 4 71 -6 4 -10 -8 -10
-29 0 -25 -4 -36 -15 -36 -10 0 -15 11 -15 35 0 19 -5 35 -11 35 -6 0 -9 -15
-7 -36z"/>
<path d="M1490 808 c0 -5 5 -8 10 -8 6 0 10 -16 10 -35 0 -19 5 -35 10 -35 6
0 10 16 10 35 0 19 5 35 10 35 6 0 10 3 10 8 0 4 -13 7 -30 7 -16 0 -30 -3
-30 -7z"/>
<path d="M1570 788 c0 -20 7 -41 15 -48 23 -19 45 5 44 49 l-2 36 -6 -35 c-7
-43 -36 -49 -36 -8 -1 15 -4 30 -8 34 -4 4 -7 -9 -7 -28z"/>
<path d="M1660 775 c0 -26 5 -45 11 -45 6 0 9 6 6 14 -10 24 7 28 24 5 16 -21
16 -21 15 15 -2 36 -17 56 -43 56 -9 0 -13 -16 -13 -45z m40 15 c0 -5 -7 -10
-15 -10 -8 0 -15 5 -15 10 0 6 7 10 15 10 8 0 15 -4 15 -10z"/>
<path d="M1744 806 c-3 -8 -4 -27 -2 -43 2 -20 9 -29 26 -31 12 -2 22 1 22 7
0 6 -7 11 -15 11 -21 0 -19 18 3 23 16 4 16 5 0 6 -22 1 -24 21 -3 21 8 0 15
5 15 10 0 15 -40 12 -46 -4z"/>
<path d="M831 796 c-13 -15 -5 -45 13 -48 6 -1 58 -2 116 -2 100 -1 109 -3
190 -40 79 -37 94 -40 210 -48 155 -9 140 -9 290 1 117 8 131 11 219 51 92 42
97 43 172 37 63 -5 81 -3 94 9 11 12 12 20 5 35 -12 21 -25 25 -35 10 -3 -6 3
-14 12 -20 14 -7 15 -13 7 -21 -9 -9 -25 -9 -67 0 -67 13 -100 6 -213 -47 -75
-35 -85 -37 -192 -40 -63 -2 -121 -7 -131 -12 -10 -6 -23 -5 -34 1 -10 5 -68
10 -130 12 -105 1 -117 4 -193 38 -125 56 -157 62 -237 47 -61 -11 -70 -11
-85 4 -15 16 -15 17 1 17 9 0 17 7 17 15 0 19 -14 19 -29 1z"/>
<path d="M928 804 c-10 -3 -18 -9 -18 -14 0 -5 14 -5 31 0 32 10 115 -2 149
-20 25 -14 55 -13 68 3 8 9 4 12 -16 13 -15 1 -43 4 -62 7 -72 11 -136 16
-152 11z"/>
<path d="M1989 806 c-5 -6 -83 -18 -121 -20 -33 -1 -36 -12 -7 -21 12 -4 41 1
65 10 27 10 64 16 94 13 52 -3 67 5 28 16 -27 7 -53 8 -59 2z"/>
<path d="M2536 1111 c-3 -4 4 -7 14 -6 27 2 33 10 10 12 -11 1 -22 -2 -24 -6z"/>
<path d="M520 1110 c8 -5 20 -10 25 -10 6 0 3 5 -5 10 -8 5 -19 10 -25 10 -5
0 -3 -5 5 -10z"/>
<path d="M650 1016 c0 -2 7 -7 16 -10 8 -3 12 -2 9 4 -6 10 -25 14 -25 6z"/>
<path d="M620 956 c14 -9 41 -15 60 -14 l35 0 -35 7 c-19 4 -46 11 -60 15
l-25 7 25 -15z"/>
<path d="M2420 931 c0 -11 26 -22 34 -14 3 3 3 10 0 14 -7 12 -34 11 -34 0z"/>
<path d="M640 796 c0 -2 8 -10 18 -17 15 -13 16 -12 3 4 -13 16 -21 21 -21 13z"/>
<path d="M2525 811 c20 -8 20 -8 0 -13 -12 -4 -6 -6 17 -7 20 0 39 3 42 8 4 5
-3 7 -14 4 -11 -3 -20 0 -20 6 0 6 -10 11 -22 10 -22 0 -22 -1 -3 -8z"/>
<path d="M866 609 c3 -5 0 -9 -7 -9 -7 0 -10 -2 -7 -5 3 -3 16 -2 28 3 l24 9
-22 5 c-12 4 -20 2 -16 -3z"/>
<path d="M2166 631 c-4 -5 3 -7 14 -4 23 6 26 13 6 13 -8 0 -17 -4 -20 -9z"/>
<path d="M995 550 c3 -5 11 -10 16 -10 6 0 7 5 4 10 -3 6 -11 10 -16 10 -6 0
-7 -4 -4 -10z"/>
<path d="M1146 591 c-11 -4 -15 -10 -10 -13 5 -2 20 1 34 8 26 14 8 18 -24 5z"/>
<path d="M1625 603 c22 -15 32 -16 39 -4 3 5 -8 11 -26 13 -28 5 -29 4 -13 -9z"/>
<path d="M1455 509 c-4 -12 -2 -26 4 -32 8 -8 11 -2 11 21 0 37 -6 41 -15 11z"/>
<path d="M1421 499 c-1 -9 8 -26 19 -39 11 -13 20 -18 20 -12 0 6 -5 14 -11
17 -6 4 -14 17 -19 29 -6 14 -9 16 -9 5z"/>
<path d="M1576 484 c-9 -8 -16 -23 -15 -32 0 -14 2 -14 6 -2 3 8 12 23 21 33
19 21 9 23 -12 1z"/>
<path d="M1585 459 c-4 -6 -5 -12 -2 -15 2 -3 7 2 10 11 7 17 1 20 -8 4z"/>
<path d="M1417 443 c5 -12 3 -14 -8 -8 -8 4 -11 4 -6 0 4 -5 16 -9 27 -10 19
-2 19 -1 3 17 -20 22 -24 23 -16 1z"/>
<path d="M2195 500 c-3 -5 1 -10 10 -10 9 0 13 5 10 10 -3 6 -8 10 -10 10 -2
0 -7 -4 -10 -10z"/>
<path d="M1936 391 c-3 -5 2 -8 12 -7 20 1 23 -25 3 -32 -9 -3 -11 0 -6 8 6 9
4 11 -4 5 -9 -5 -10 -10 -2 -18 8 -8 16 -7 28 5 13 14 14 20 3 32 -14 18 -26
20 -34 7z"/>
<path d="M1559 363 c-13 -16 -12 -17 4 -4 16 13 21 21 13 21 -2 0 -10 -8 -17
-17z"/>
<path d="M1521 324 c0 -11 3 -14 6 -6 3 7 2 16 -1 19 -3 4 -6 -2 -5 -13z"/>
<path d="M1235 315 c0 -18 3 -20 18 -11 19 12 18 28 -4 31 -8 2 -14 -6 -14
-20z"/>
<path d="M1865 2763 c-5 -13 -9 -14 -12 -5 -4 10 -11 5 -24 -15 -15 -23 -19
-24 -19 -9 0 11 -3 17 -6 13 -3 -3 -3 -16 1 -28 7 -23 8 -23 22 5 8 15 17 26
20 23 2 -3 0 -14 -6 -25 -6 -12 -11 -27 -11 -34 1 -7 12 9 26 35 14 27 23 51
21 53 -3 3 -8 -3 -12 -13z"/>
<path d="M2050 2770 c8 -5 22 -9 30 -9 10 0 8 3 -5 9 -27 12 -43 12 -25 0z"/>
<path d="M2085 2720 c-3 -5 -15 -10 -26 -10 -10 0 -19 -3 -19 -7 0 -5 30 -8
68 -9 54 -1 62 1 40 8 -16 5 -28 14 -28 19 0 12 -27 12 -35 -1z"/>
<path d="M2138 2723 c7 -3 16 -2 19 1 4 3 -2 6 -13 5 -11 0 -14 -3 -6 -6z"/>
<path d="M1012 2709 c2 -6 8 -10 13 -10 5 0 11 4 13 10 2 6 -4 11 -13 11 -9 0
-15 -5 -13 -11z"/>
<path d="M2055 2681 l-50 -6 50 -7 c37 -5 54 -3 65 8 16 16 22 15 -65 5z"/>
<path d="M2134 2665 c-10 -8 -24 -15 -30 -15 -6 0 -29 -7 -50 -16 l-39 -16 45
-24 c52 -27 49 -31 -5 -8 -34 14 -39 14 -54 0 -9 -10 -11 -16 -4 -16 7 0 14 4
18 9 3 6 29 -1 59 -14 44 -19 54 -21 52 -9 -1 9 -8 19 -15 23 -7 5 -13 12 -13
17 1 5 -9 14 -21 21 -38 21 2 14 44 -8 23 -11 38 -16 34 -9 -3 6 -21 17 -38
25 -33 16 -32 16 43 0 15 -3 11 0 -10 9 -19 8 -30 15 -23 15 6 1 19 4 29 8 12
4 15 3 10 -5 -4 -7 -1 -12 10 -12 16 0 16 1 -1 20 -22 24 -17 23 -41 5z m-54
-60 c14 -8 21 -14 15 -14 -5 0 -21 6 -35 14 -14 8 -20 14 -15 14 6 0 21 -6 35
-14z"/>
<path d="M1960 2631 c-37 -6 -40 -8 -20 -13 19 -4 16 -6 -15 -7 -22 -1 -47 -6
-55 -12 -11 -8 3 -9 50 -5 42 4 58 2 45 -4 -15 -6 -16 -9 -4 -9 23 -1 30 10
16 27 -10 13 -9 15 11 10 12 -4 20 -2 17 2 -3 5 1 11 7 13 16 6 7 6 -52 -2z"/>
<path d="M721 2544 c-22 -28 -27 -69 -11 -94 5 -8 10 -10 10 -4 0 6 7 11 15
11 8 0 12 -4 9 -8 -2 -4 0 -10 6 -14 6 -4 8 -11 5 -16 -4 -5 -1 -9 5 -9 6 0
10 8 8 18 -1 9 0 22 4 27 3 6 3 34 1 63 -6 59 -20 66 -52 26z m24 -24 c3 -5 2
-10 -4 -10 -5 0 -13 5 -16 10 -3 6 -2 10 4 10 5 0 13 -4 16 -10z m0 -23 c14
-11 15 -16 5 -22 -8 -5 -11 -4 -7 2 4 6 0 14 -9 17 -12 4 -15 2 -10 -9 3 -8 1
-15 -4 -15 -6 0 -10 9 -10 20 0 23 9 25 35 7z"/>
<path d="M670 2506 c0 -8 4 -17 8 -20 4 -2 8 4 8 15 0 10 -4 19 -8 19 -4 0 -8
-6 -8 -14z"/>
<path d="M2184 2488 c-33 -44 -42 -100 -13 -82 5 3 7 9 5 13 -3 4 0 13 6 21 8
13 9 12 5 -1 -3 -9 -1 -21 5 -27 6 -6 1 -12 -16 -16 -31 -8 -35 -26 -5 -26 13
0 18 4 13 12 -5 7 -3 8 6 3 10 -6 9 -11 -5 -21 -10 -8 -15 -17 -11 -21 4 -5
16 2 25 14 12 15 22 18 32 12 8 -5 22 -6 33 -3 13 4 16 2 11 -6 -4 -7 -19 -10
-36 -6 -29 6 -50 -11 -30 -24 17 -10 101 11 101 26 0 12 -50 34 -80 34 -13 0
-16 7 -12 29 5 37 -20 88 -34 69z"/>
<path d="M575 2457 c-10 -8 -14 -16 -9 -19 32 -20 104 -58 108 -58 3 0 14 9
25 21 14 15 19 17 18 5 -1 -8 3 -15 8 -15 6 0 9 7 9 15 -1 8 2 14 8 14 5 0 6
5 3 11 -4 6 -13 8 -21 5 -8 -3 -17 1 -21 10 -3 8 -12 13 -20 10 -8 -3 -11 -1
-8 4 9 15 -78 12 -100 -3z m49 -16 c3 -5 15 -7 26 -4 11 3 20 0 20 -6 0 -6 5
-11 11 -11 5 0 7 5 4 10 -3 6 -1 10 4 10 14 0 14 -17 1 -25 -12 -7 -77 12 -85
26 -4 5 -2 9 4 9 5 0 12 -4 15 -9z"/>
<path d="M612 2303 c-11 -18 -1 -63 22 -97 7 -12 16 -31 18 -41 5 -22 28 69
28 108 0 43 -49 65 -68 30z m32 -78 c4 -20 3 -25 -3 -15 -5 8 -11 31 -15 50
-7 41 7 13 18 -35z m23 18 c-3 -10 -5 -2 -5 17 0 19 2 27 5 18 2 -10 2 -26 0
-35z"/>
<path d="M505 2300 c-3 -5 -1 -10 4 -10 6 0 11 5 11 10 0 6 -2 10 -4 10 -3 0
-8 -4 -11 -10z"/>
<path d="M735 2301 c-3 -5 -1 -12 5 -16 5 -3 10 1 10 9 0 18 -6 21 -15 7z"/>
<path d="M2324 2296 c-10 -26 4 -48 28 -44 17 2 23 10 23 28 0 18 -6 26 -23
28 -13 2 -25 -3 -28 -12z m42 -7 c10 -17 -13 -36 -27 -22 -12 12 -4 33 11 33
5 0 12 -5 16 -11z"/>
<path d="M1210 2279 c-6 -11 -10 -27 -8 -35 2 -8 8 1 14 20 12 40 10 46 -6 15z"/>
<path d="M540 2270 c0 -5 5 -10 10 -10 6 0 10 5 10 10 0 6 -4 10 -10 10 -5 0
-10 -4 -10 -10z"/>
<path d="M705 2270 c3 -5 8 -10 11 -10 2 0 4 5 4 10 0 6 -5 10 -11 10 -5 0 -7
-4 -4 -10z"/>
<path d="M727 2221 c-34 -35 -60 -72 -63 -90 -4 -17 -10 -31 -15 -31 -5 0 -6
7 -3 14 10 25 -55 126 -80 126 -6 0 -4 -5 4 -10 12 -8 9 -10 -11 -10 -29 0
-69 -30 -69 -52 0 -17 20 -38 35 -38 5 0 2 5 -7 11 -10 5 -18 15 -18 21 0 7 4
7 14 -1 10 -9 16 -8 26 3 6 9 9 20 5 26 -3 5 2 13 11 17 13 5 27 -4 51 -32 40
-46 44 -69 5 -29 -15 16 -26 32 -24 37 2 4 -2 7 -7 7 -6 0 -11 -8 -11 -18 0
-21 73 -96 83 -86 4 4 7 1 7 -7 0 -9 -10 -15 -26 -14 -51 0 -58 -64 -8 -74 16
-3 15 0 -6 17 -21 17 -22 22 -11 36 29 34 63 5 75 -64 l7 -35 -16 28 c-9 16
-19 26 -22 23 -3 -2 4 -18 16 -35 16 -22 21 -45 22 -95 l1 -65 36 23 c20 12
38 28 40 34 6 20 -28 26 -47 8 -17 -16 -18 -14 -20 56 -3 101 -5 117 -12 112
-10 -6 -19 23 -19 58 0 45 58 100 102 96 21 -2 33 -8 33 -18 0 -15 -7 -16 -37
-5 -28 11 -21 -14 7 -27 21 -10 29 -9 43 5 25 26 4 52 -44 54 -22 1 -43 2 -49
2 -19 2 32 29 60 33 22 2 30 8 30 23 0 38 -31 26 -88 -34z m73 40 c0 -5 -10
-11 -22 -14 -22 -6 -22 -6 -4 8 23 17 26 18 26 6z m-50 -400 c0 -5 -11 -16
-25 -25 -29 -19 -33 -11 -8 16 17 19 33 24 33 9z"/>
<path d="M920 2270 c0 -5 5 -10 11 -10 5 0 7 5 4 10 -3 6 -8 10 -11 10 -2 0
-4 -4 -4 -10z"/>
<path d="M2173 2244 c-8 -22 9 -49 33 -49 30 0 27 59 -4 63 -14 2 -25 -3 -29
-14z m45 -25 c-2 -6 -8 -10 -13 -10 -5 0 -11 4 -13 10 -2 6 4 11 13 11 9 0 15
-5 13 -11z"/>
<path d="M2267 2253 c-10 -9 -8 -41 2 -47 5 -4 7 2 4 13 -3 10 1 22 8 26 23
15 39 -26 39 -99 l1 -71 18 53 c22 63 46 92 78 92 17 0 23 -6 23 -21 0 -18 -4
-20 -27 -14 -27 6 -27 6 -10 -12 16 -17 18 -17 38 4 l21 21 -21 21 c-20 20
-24 20 -50 7 -15 -8 -35 -30 -44 -48 l-17 -33 0 35 c0 54 -39 98 -63 73z"/>
<path d="M515 2240 c-3 -5 1 -10 9 -10 9 0 16 5 16 10 0 6 -4 10 -9 10 -6 0
-13 -4 -16 -10z"/>
<path d="M923 2206 c2 -6 -3 -16 -11 -22 -20 -15 -8 -44 17 -44 11 0 23 -5 27
-12 5 -8 10 -7 18 4 6 8 15 15 20 14 5 -1 13 6 19 15 7 12 5 21 -9 35 -21 21
-87 29 -81 10z m51 -12 c-7 -3 -10 -14 -7 -24 3 -11 1 -20 -5 -20 -5 0 -12 11
-14 25 -4 20 -1 25 16 24 11 0 16 -3 10 -5z m-39 -24 c3 -5 1 -10 -4 -10 -6 0
-11 5 -11 10 0 6 2 10 4 10 3 0 8 -4 11 -10z"/>
<path d="M1760 2210 c-12 -8 -11 -10 5 -9 11 1 31 5 45 9 24 8 24 8 -5 9 -16
0 -37 -4 -45 -9z"/>
<path d="M2487 2134 c-11 -14 -28 -24 -43 -24 -70 0 -134 -61 -134 -127 0 -31
1 -32 38 -26 57 9 115 43 99 59 -8 9 -37 -8 -31 -18 4 -6 -2 -8 -17 -3 -16 4
-20 3 -11 -3 10 -7 2 -12 -28 -20 -34 -8 -39 -8 -30 3 6 8 17 13 23 11 7 -1 9
-1 5 1 -5 3 -8 9 -8 14 0 6 4 8 9 4 5 -3 12 -1 16 5 4 6 11 8 16 5 5 -4 9 -2
9 4 0 6 8 8 18 5 16 -5 15 -5 -1 6 -12 7 -16 18 -12 31 4 11 2 19 -4 19 -6 0
-10 -3 -10 -7 4 -25 -2 -36 -13 -25 -13 13 8 45 26 39 6 -3 18 -1 27 4 11 6
21 4 28 -5 9 -11 7 -19 -9 -34 -18 -17 -19 -20 -5 -26 16 -6 19 0 51 88 17 47
15 52 -9 20z m-111 -111 c-4 -4 -11 -1 -15 6 -6 9 -10 6 -15 -13 -6 -25 -26
-37 -26 -16 0 6 5 10 11 10 6 0 9 6 7 12 -3 7 0 18 6 25 9 9 14 8 25 -3 8 -7
11 -17 7 -21z"/>
<path d="M2237 2133 c-15 -15 -5 -33 21 -39 15 -4 33 -12 41 -18 12 -9 12 -8
3 11 -23 42 -50 61 -65 46z"/>
<path d="M2168 2054 c5 -88 22 -135 58 -159 20 -13 24 -24 24 -65 0 -53 -16
-69 -23 -22 -2 15 -5 -6 -6 -45 0 -46 -5 -73 -12 -73 -7 0 -9 19 -5 58 3 31 2
73 -3 92 -5 19 -9 28 -10 20 -1 -8 -4 -26 -8 -39 -4 -17 -3 -22 5 -17 8 5 12
-2 11 -21 0 -28 0 -28 -10 -4 -5 13 -12 22 -14 19 -3 -3 -1 -17 5 -32 13 -35
13 -76 0 -76 -5 0 -11 17 -11 38 -4 104 -6 122 -12 128 -4 4 -7 -17 -7 -47 0
-78 -19 -42 -21 41 l-2 65 -7 -70 c-7 -77 11 -155 36 -155 8 0 14 -4 14 -9 0
-5 10 -7 23 -4 20 5 20 4 5 -8 -15 -12 -15 -18 -3 -44 l14 -30 -6 33 c-3 20
-1 32 6 32 6 0 11 -17 11 -39 0 -55 16 -60 23 -8 3 24 9 52 13 62 5 14 4 17
-4 10 -6 -5 -12 -21 -14 -35 -4 -25 -4 -25 -10 3 -3 16 0 34 6 40 33 35 86
107 79 107 -13 -1 -49 -34 -62 -59 -7 -12 -15 -20 -18 -17 -10 10 47 86 64 86
44 0 152 54 138 69 -4 3 -10 -1 -14 -8 -5 -7 -20 -14 -34 -14 -14 -1 -23 -5
-20 -9 2 -5 -7 -8 -21 -8 -13 0 -26 -5 -28 -11 -2 -7 -11 -10 -18 -7 -10 3 1
13 28 27 23 12 47 19 52 16 6 -3 10 -2 10 4 0 19 -21 23 -45 7 -14 -9 -25 -13
-25 -8 0 15 38 44 49 38 5 -4 12 -2 15 2 3 5 19 9 36 10 17 0 28 -4 24 -9 -3
-5 -9 -7 -13 -4 -5 2 -17 -2 -27 -10 -17 -13 -16 -14 18 -12 21 2 45 10 54 19
16 15 14 17 -25 28 -74 20 -125 -9 -169 -95 l-21 -40 2 114 2 113 -41 37 c-22
20 -45 44 -51 55 -7 13 -9 -3 -5 -60z m42 -5 c0 -5 -4 -7 -10 -4 -14 9 -12 -6
6 -35 l15 -25 -5 27 c-4 15 -2 30 4 33 13 8 13 -45 0 -65 -6 -9 -5 -17 3 -22
9 -6 9 -8 -1 -8 -7 0 -10 -5 -7 -10 4 -6 11 -7 17 -4 7 5 8 2 4 -5 -6 -9 -13
-8 -27 5 -10 9 -16 21 -13 25 3 5 2 15 -3 22 -14 23 -13 77 3 77 8 0 14 -5 14
-11z m45 -100 c3 -37 1 -58 -4 -51 -4 7 -6 24 -4 36 3 13 1 26 -5 30 -5 3 -7
17 -4 31 7 39 12 25 17 -46z m-95 -218 c-1 -25 -1 -25 -15 -7 -19 25 -19 33 0
33 10 0 15 -10 15 -26z"/>
<path d="M2190 2001 c0 -6 4 -13 10 -16 6 -3 7 1 4 9 -7 18 -14 21 -14 7z"/>
<path d="M525 2107 c-4 -10 -3 -23 3 -29 14 -14 42 -3 42 16 0 22 -20 30 -21
9 0 -16 -1 -16 -9 2 -7 19 -8 19 -15 2z"/>
<path d="M760 2110 c0 -5 5 -10 10 -10 6 0 10 5 10 10 0 6 -4 10 -10 10 -5 0
-10 -4 -10 -10z"/>
<path d="M692 2098 c-6 -6 -12 -19 -12 -27 1 -14 3 -13 14 2 16 21 27 22 20 2
-4 -10 0 -15 11 -15 11 0 15 7 13 22 -3 26 -28 34 -46 16z"/>
<path d="M1057 2075 c-49 -18 -73 -36 -102 -74 l-23 -32 -7 43 c-13 77 -24 77
-25 1 0 -96 7 -113 31 -73 10 16 42 45 71 64 44 28 112 88 97 85 -2 0 -21 -7
-42 -14z m-2 -24 c-3 -5 -27 -21 -53 -35 l-47 -26 37 35 c34 31 78 49 63 26z
m-138 -103 c-2 -13 -4 -5 -4 17 -1 22 1 32 4 23 2 -10 2 -28 0 -40z"/>
<path d="M2429 2060 c-13 -10 -19 -19 -13 -20 6 0 19 9 29 20 23 26 14 26 -16
0z"/>
<path d="M741 2034 c-29 -37 -38 -94 -18 -109 9 -7 13 -16 9 -20 -4 -5 -2 -5
5 -1 7 4 10 13 7 21 -4 8 -10 12 -15 9 -5 -3 -9 1 -9 8 0 7 19 29 42 48 29 26
40 41 35 53 -9 25 -33 21 -56 -9z m37 -5 c-2 -6 -8 -11 -13 -11 -6 -1 -16 -8
-23 -17 -10 -12 -12 -13 -6 -1 12 24 26 40 36 40 5 0 8 -5 6 -11z"/>
<path d="M835 1996 c14 -14 27 -42 31 -66 6 -34 9 -39 16 -25 6 9 7 27 4 39
-6 23 -52 76 -67 76 -4 0 3 -11 16 -24z"/>
<path d="M2082 2011 c2 -7 7 -12 11 -12 12 1 9 15 -3 20 -7 2 -11 -2 -8 -8z"/>
<path d="M2540 1975 c-10 -12 -9 -16 5 -21 23 -9 40 10 22 25 -11 9 -17 8 -27
-4z"/>
<path d="M550 1970 c0 -5 7 -10 15 -10 8 0 15 5 15 10 0 6 -7 10 -15 10 -8 0
-15 -4 -15 -10z"/>
<path d="M760 1960 c0 -5 5 -10 10 -10 6 0 10 5 10 10 0 6 -4 10 -10 10 -5 0
-10 -4 -10 -10z"/>
<path d="M995 1956 c-17 -7 -46 -31 -65 -52 -19 -21 -31 -31 -27 -22 3 10 2
20 -3 23 -5 3 -12 -21 -16 -54 -4 -36 -12 -62 -20 -65 -8 -3 -14 -10 -14 -16
0 -6 4 -9 8 -6 4 2 6 -23 4 -57 -4 -70 5 -74 13 -6 5 38 15 54 78 117 39 39
68 72 64 72 -15 0 -96 -42 -108 -56 -10 -12 -9 -13 7 -8 18 7 18 7 1 -13 -9
-11 -15 -22 -12 -25 3 -3 -2 -11 -11 -19 -15 -12 -16 -10 -10 21 4 19 10 43
12 52 3 10 40 42 82 73 74 53 80 69 17 41z m5 -9 c0 -2 -15 -13 -32 -26 l-33
-22 28 25 c26 24 37 31 37 23z m-20 -90 c0 -2 -17 -19 -37 -38 -21 -18 -29
-24 -19 -11 11 12 15 22 10 22 -11 1 26 30 38 30 4 0 8 -1 8 -3z"/>
<path d="M780 1930 c0 -5 5 -10 10 -10 6 0 10 5 10 10 0 6 -4 10 -10 10 -5 0
-10 -4 -10 -10z"/>
<path d="M1767 1924 c-8 -8 1 -24 14 -24 5 0 9 7 9 15 0 15 -12 20 -23 9z"/>
<path d="M1800 1900 c0 -13 -6 -19 -17 -17 -10 1 -18 -2 -18 -8 0 -5 5 -10 12
-10 6 0 15 -4 19 -8 14 -14 26 -7 21 13 -3 11 -1 23 4 26 11 6 2 24 -12 24 -5
0 -9 -9 -9 -20z"/>
<path d="M1945 1843 c26 -31 55 -57 66 -58 10 -1 19 2 19 6 0 8 -115 109 -124
109 -4 0 14 -26 39 -57z"/>
<path d="M2559 1883 c-1 -5 0 -16 1 -26 3 -29 -31 -207 -40 -207 -4 0 -10 23
-12 51 -3 27 -10 55 -15 60 -6 6 -6 -9 1 -40 10 -53 -2 -101 -26 -101 -9 0 -9
3 0 12 20 20 15 105 -8 128 -35 35 -87 17 -78 -27 5 -26 38 -30 38 -4 0 27 15
27 34 -1 23 -33 21 -75 -4 -83 -20 -6 -20 -7 5 -27 l26 -21 15 22 c8 11 24 21
35 21 11 0 17 4 14 10 -17 28 39 131 61 112 4 -4 4 -2 1 4 -12 20 24 26 39 7
19 -25 13 -49 -11 -45 -16 3 -18 1 -7 -9 9 -10 17 -11 30 -3 25 16 27 50 2 67
-12 8 -18 21 -15 29 7 18 -19 42 -37 35 -8 -3 -6 -6 5 -6 21 -1 20 -43 -1 -47
-7 -1 -8 0 -2 3 18 9 11 33 -10 33 -21 0 -25 -28 -7 -41 4 -3 0 -12 -9 -20
-15 -13 -16 -8 -12 54 2 37 0 67 -4 67 -4 0 -9 -3 -9 -7z m-114 -123 c3 -6 -1
-7 -9 -4 -11 4 -19 -2 -24 -17 -6 -15 -11 -19 -16 -10 -9 14 11 41 30 41 7 0
16 -4 19 -10z"/>
<path d="M573 1863 c-3 -8 -1 -23 6 -32 36 -50 51 -78 51 -98 0 -12 5 -25 11
-29 12 -7 7 25 -17 112 -14 53 -40 77 -51 47z m37 -47 c0 -6 -7 -2 -15 8 -8
11 -15 25 -15 30 0 6 7 2 15 -8 8 -11 15 -25 15 -30z"/>
<path d="M2462 1854 c-26 -18 -30 -62 -6 -71 9 -3 20 0 25 8 12 19 11 29 -1
29 -5 0 -10 -7 -10 -16 0 -8 -4 -12 -10 -9 -19 12 -10 35 17 46 19 7 29 6 37
-2 8 -9 7 -10 -4 -4 -13 8 -13 6 -1 -8 7 -9 11 -24 7 -32 -3 -9 -2 -13 3 -10
5 3 12 -3 15 -12 3 -10 4 2 1 27 -2 27 -10 49 -21 57 -22 16 -25 16 -52 -3z"/>
<path d="M1770 1810 c0 -5 5 -10 11 -10 5 0 7 5 4 10 -3 6 -8 10 -11 10 -2 0
-4 -4 -4 -10z"/>
<path d="M530 1785 c0 -5 5 -17 10 -25 5 -8 10 -10 10 -5 0 6 -5 17 -10 25 -5
8 -10 11 -10 5z"/>
<path d="M2511 1754 c0 -11 3 -14 6 -6 3 7 2 16 -1 19 -3 4 -6 -2 -5 -13z"/>
<path d="M1200 1664 c-12 -32 -13 -95 -1 -76 4 7 6 24 4 36 -3 13 0 26 5 30 6
4 8 -3 5 -16 -4 -19 -3 -20 6 -8 14 19 14 60 1 60 -6 0 -15 -12 -20 -26z"/>
<path d="M1265 1651 c-4 -27 -2 -49 10 -70 13 -26 21 -31 47 -29 24 2 33 -2
36 -14 2 -13 -1 -16 -12 -12 -9 3 -13 11 -10 16 4 6 1 9 -7 6 -25 -8 -15 -33
14 -36 21 -3 27 1 27 16 0 25 -25 46 -48 40 -15 -4 -19 2 -21 34 -2 38 -16 88
-25 88 -2 0 -7 -18 -11 -39z m24 -33 c0 -27 -2 -29 -8 -13 -5 11 -6 26 -4 33
8 21 13 13 12 -20z"/>
<path d="M1810 1680 c0 -5 5 -10 10 -10 6 0 10 5 10 10 0 6 -4 10 -10 10 -5 0
-10 -4 -10 -10z"/>
<path d="M2267 1674 c-4 -4 -7 -14 -7 -23 0 -11 3 -12 11 -4 6 6 10 16 7 23
-2 6 -7 8 -11 4z"/>
<path d="M1965 1650 c10 -11 20 -20 23 -20 3 0 -3 9 -13 20 -10 11 -20 20 -23
20 -3 0 3 -9 13 -20z"/>
<path d="M1321 1633 c0 -12 -4 -30 -7 -40 -5 -17 -5 -17 6 0 6 10 9 28 7 40
-4 22 -4 22 -6 0z"/>
<path d="M2531 1614 c0 -11 3 -14 6 -6 3 7 2 16 -1 19 -3 4 -6 -2 -5 -13z"/>
<path d="M2512 1586 c7 -8 15 -12 17 -11 5 6 -10 25 -20 25 -5 0 -4 -6 3 -14z"/>
<path d="M480 1528 c0 -7 5 -20 10 -28 8 -12 10 -11 10 7 0 12 -4 25 -10 28
-5 3 -10 0 -10 -7z"/>
<path d="M511 1474 c1 -21 5 -50 9 -64 5 -17 7 -6 5 34 -4 65 -16 91 -14 30z"/>
<path d="M2330 1472 c0 -10 41 -24 49 -17 6 7 0 11 -26 19 -13 4 -23 3 -23 -2z"/>
<path d="M2471 1471 c-8 -5 -21 -6 -30 -3 -13 5 -13 3 2 -12 16 -17 16 -19 -5
-49 -12 -17 -15 -26 -7 -21 7 5 16 9 19 10 17 3 40 17 40 25 0 4 -8 6 -17 3
-10 -4 -4 3 12 15 17 11 24 21 17 21 -7 0 -10 5 -7 10 8 12 -5 13 -24 1z m19
-15 c0 -2 -7 -7 -16 -10 -8 -3 -12 -2 -9 4 6 10 25 14 25 6z"/>
<path d="M2502 1420 c0 -14 2 -19 5 -12 2 6 2 18 0 25 -3 6 -5 1 -5 -13z"/>
<path d="M337 1415 c3 -8 19 -23 36 -34 38 -22 103 -39 93 -23 -3 6 -20 13
-36 17 -16 4 -45 17 -64 30 -22 15 -33 18 -29 10z"/>
<path d="M2212 1388 c-19 -70 -18 -82 1 -86 15 -3 17 5 17 62 0 36 -2 66 -4
66 -2 0 -8 -19 -14 -42z m1 -69 c-6 -6 -7 3 -4 23 4 28 6 29 9 9 2 -13 0 -27
-5 -32z"/>
<path d="M2256 1419 c4 -7 7 -26 6 -43 -1 -23 2 -27 9 -16 8 11 9 4 5 -25 -2
-22 -2 -32 0 -22 3 9 10 15 15 12 5 -4 9 0 9 7 -1 17 -37 98 -45 98 -3 0 -3
-5 1 -11z"/>
<path d="M2241 1394 c0 -11 3 -14 6 -6 3 7 2 16 -1 19 -3 4 -6 -2 -5 -13z"/>
<path d="M200 1375 c0 -9 5 -15 11 -13 6 2 11 8 11 13 0 5 -5 11 -11 13 -6 2
-11 -4 -11 -13z"/>
<path d="M2705 1381 c-3 -6 4 -15 15 -21 24 -13 26 -28 4 -37 -10 -4 -22 1
-29 11 -12 15 -13 15 -19 0 -8 -20 10 -44 34 -44 35 0 59 45 44 84 -7 17 -39
22 -49 7z"/>
<path d="M2241 1336 c-1 -26 2 -37 9 -30 6 6 6 21 1 39 -9 30 -9 30 -10 -9z"/>
<path d="M408 1343 c7 -3 16 -2 19 1 4 3 -2 6 -13 5 -11 0 -14 -3 -6 -6z"/>
<path d="M458 1333 c7 -3 16 -2 19 1 4 3 -2 6 -13 5 -11 0 -14 -3 -6 -6z"/>
<path d="M2276 1258 c3 -4 12 -8 20 -8 8 0 28 -7 44 -15 24 -13 28 -13 26 0
-1 8 -6 18 -11 22 -4 4 -5 2 -1 -4 4 -7 3 -13 -3 -13 -5 0 -16 6 -23 13 -14
13 -60 18 -52 5z"/>
<path d="M1775 1250 c3 -5 8 -10 11 -10 2 0 4 5 4 10 0 6 -5 10 -11 10 -5 0
-7 -4 -4 -10z"/>
<path d="M2230 1250 c8 -5 20 -10 25 -10 6 0 3 5 -5 10 -8 5 -19 10 -25 10 -5
0 -3 -5 5 -10z"/>
<path d="M2376 1165 c4 -8 8 -15 10 -15 2 0 4 7 4 15 0 8 -4 15 -10 15 -5 0
-7 -7 -4 -15z"/>
<path d="M2325 1110 c-3 -5 -1 -10 4 -10 6 0 11 5 11 10 0 6 -2 10 -4 10 -3 0
-8 -4 -11 -10z"/>
<path d="M2496 1043 c-6 -14 -5 -15 5 -6 7 7 10 15 7 18 -3 3 -9 -2 -12 -12z"/>
<path d="M2330 1029 c0 -30 15 -36 35 -16 11 11 14 17 7 13 -7 -4 -19 -2 -27
4 -12 10 -15 10 -15 -1z"/>
<path d="M2361 961 c-27 -14 -30 -19 -17 -24 10 -4 15 -3 11 3 -3 6 -2 10 2
10 5 0 18 7 29 15 26 19 16 18 -25 -4z"/>
<path d="M2216 741 c-3 -5 1 -11 9 -15 8 -3 15 -1 15 4 0 13 -18 22 -24 11z"/>
<path d="M2250 719 c0 -5 5 -7 10 -4 6 3 10 8 10 11 0 2 -4 4 -10 4 -5 0 -10
-5 -10 -11z"/>
<path d="M2350 715 c0 -3 12 -10 26 -15 23 -9 25 -12 13 -28 -13 -15 -12 -16
3 -4 14 11 19 10 32 -10 21 -33 39 -114 33 -147 -5 -22 -1 -33 15 -47 21 -19
21 -19 13 1 -4 11 -11 49 -15 85 -8 74 -28 119 -66 149 -25 19 -54 28 -54 16z"/>
<path d="M572 677 c-37 -39 -47 -64 -57 -142 -4 -33 -12 -66 -17 -72 -15 -18
2 -16 22 2 13 12 16 27 12 64 -6 64 19 121 51 115 20 -4 20 -4 3 4 -23 10 -6
25 17 16 8 -3 18 0 23 7 5 9 2 10 -9 6 -9 -3 -19 -2 -22 3 -4 6 14 10 41 10
54 0 55 5 3 13 -32 5 -41 1 -67 -26z"/>
<path d="M690 690 c0 -5 4 -10 9 -10 6 0 13 5 16 10 3 6 -1 10 -9 10 -9 0 -16
-4 -16 -10z"/>
<path d="M795 660 c3 -5 8 -10 11 -10 2 0 4 5 4 10 0 6 -5 10 -11 10 -5 0 -7
-4 -4 -10z"/>
<path d="M2364 632 c26 -28 27 -33 15 -48 -10 -13 -11 -18 -2 -21 7 -2 9 -12
6 -21 -4 -15 -3 -15 6 -2 6 8 8 24 5 35 -5 16 -4 18 7 7 8 -7 14 -30 14 -52 0
-21 3 -34 6 -28 4 6 12 7 18 4 6 -4 11 -5 11 -1 0 5 -4 14 -31 66 -6 12 -8 23
-5 27 3 3 -3 12 -14 19 -11 8 -18 19 -15 24 4 5 2 9 -4 9 -5 0 -18 3 -28 7
-13 4 -10 -3 11 -25z"/>
<path d="M711 584 c0 -11 3 -14 6 -6 3 7 2 16 -1 19 -3 4 -6 -2 -5 -13z"/>
<path d="M1290 570 c0 -5 5 -10 10 -10 6 0 10 5 10 10 0 6 -4 10 -10 10 -5 0
-10 -4 -10 -10z"/>
<path d="M1264 554 c9 -8 24 -13 34 -11 16 4 16 5 0 6 -10 0 -18 6 -18 11 0 6
-7 10 -16 10 -14 0 -14 -1 0 -16z"/>
<path d="M1812 526 c-12 -21 -19 -42 -16 -48 4 -6 13 4 21 22 7 18 16 31 19
27 3 -3 -4 -24 -16 -47 -27 -52 -20 -63 10 -16 26 43 36 47 15 6 -17 -34 -18
-40 -6 -40 5 0 13 10 16 21 6 17 9 19 16 8 5 -8 9 -18 9 -24 0 -5 -5 -3 -10 5
-8 12 -10 11 -10 -7 0 -26 17 -40 32 -25 8 8 0 33 -24 83 l-34 73 -22 -38z"/>
<path d="M2331 544 c0 -11 3 -14 6 -6 3 7 2 16 -1 19 -3 4 -6 -2 -5 -13z"/>
<path d="M1771 471 c-9 -6 -7 -10 8 -14 12 -3 21 -1 21 3 0 14 -15 19 -29 11z"/>
<path d="M1795 384 c19 -36 35 -72 35 -80 0 -10 5 -12 13 -8 8 6 8 3 -1 -9
-14 -16 -9 -37 9 -37 27 0 -1 94 -48 163 -41 59 -46 43 -8 -29z"/>
<path d="M1441 347 c-8 -10 -7 -14 2 -14 8 0 14 6 14 14 0 7 -1 13 -2 13 -2 0
-8 -6 -14 -13z"/>
<path d="M1080 200 c0 -5 5 -10 10 -10 6 0 10 5 10 10 0 6 -4 10 -10 10 -5 0
-10 -4 -10 -10z"/>
<path d="M1862 188 c5 -15 28 -18 29 -3 0 6 -7 12 -17 13 -10 3 -15 -1 -12
-10z"/>
</g>
</svg>
